<?xml version="1.0" encoding="utf-8"?>
<!-- Generator: Adobe Illustrator 16.0.0, SVG Export Plug-In . SVG Version: 6.00 Build 0)  -->
<!DOCTYPE svg PUBLIC "-//W3C//DTD SVG 1.1//EN" "http://www.w3.org/Graphics/SVG/1.1/DTD/svg11.dtd">
<svg version="1.1" id="Layer_1" xmlns="http://www.w3.org/2000/svg" xmlns:xlink="http://www.w3.org/1999/xlink" x="0px" y="0px"
	 width="445.592px" height="169.664px" viewBox="-3.899 -76.673 445.592 169.664"
	 enable-background="new -3.899 -76.673 445.592 169.664" xml:space="preserve">
<g>
	<g>
		<path fill="#1268B3" d="M41.963-3.752c0.311,0.706,0.844,1.277,1.582,1.737c0.73,0.456,1.759,0.685,3.099,0.685
			c1.26,0,2.228-0.25,2.894-0.736c0.675-0.491,1.154-1.09,1.471-1.789c0.319-0.706,0.517-1.461,0.578-2.267
			c0.072-0.808,0.107-1.491,0.107-2.05v-26.426c0-0.561-0.037-1.246-0.107-2.052c-0.063-0.814-0.259-1.565-0.578-2.268
			c-0.316-0.697-0.818-1.297-1.51-1.786c-0.716-0.491-1.697-0.741-2.953-0.741c-1.123,0-2.035,0.194-2.747,0.582
			c-0.7,0.39-1.217,0.856-1.578,1.424c-0.346,0.558-0.583,1.171-0.732,1.842c-0.14,0.662-0.217,1.279-0.217,1.842v27.583
			c0,0.629,0.039,1.346,0.113,2.156C41.453-5.207,41.648-4.452,41.963-3.752"/>
		<path fill="#1268B3" d="M189.004-67.7H45.599c-1.458,0-2.888,0.084-4.327,0.218v18.989c1.762-0.701,3.479-1.052,5.168-1.052
			c2.314,0,4.311,0.404,6,1.211c1.684,0.808,3.072,1.844,4.151,3.107c1.093,1.263,1.897,2.647,2.428,4.157
			c0.522,1.508,0.787,2.999,0.787,4.475v30.637c0,2.728-0.515,4.942-1.539,6.632c-1.009,1.683-2.237,2.995-3.672,3.944
			c-1.433,0.949-2.902,1.576-4.376,1.897c-1.465,0.313-2.67,0.476-3.583,0.476c-1.605,0-3.227-0.252-4.832-0.739
			c-1.619-0.489-3.057-1.262-4.316-2.319c-1.258-1.048-2.298-2.399-3.108-4.049c-0.809-1.649-1.216-3.596-1.216-5.84v-59.978
			C14.087-60.514-0.001-43.022-0.001-22.37v2.235c0,24.932,20.519,45.323,45.6,45.323h143.405c25.081,0,45.611-20.392,45.611-45.323
			v-2.235C234.615-47.303,214.085-67.7,189.004-67.7"/>
		<path fill="#FFFFFF" d="M56.592-45.227c-1.081-1.264-2.467-2.3-4.151-3.107c-1.69-0.807-3.687-1.206-6-1.206
			c-1.689,0-3.406,0.348-5.168,1.047v-18.989c-2.777,0.261-5.472,0.759-8.107,1.503v60.021c0,2.242,0.408,4.189,1.216,5.84
			c0.811,1.645,1.851,2.999,3.108,4.052c1.259,1.054,2.697,1.826,4.316,2.315c1.605,0.488,3.227,0.734,4.838,0.734
			c0.905,0,2.11-0.156,3.576-0.465c1.475-0.322,2.945-0.954,4.376-1.901c1.443-0.949,2.675-2.261,3.672-3.946
			c1.023-1.681,1.539-3.902,1.539-6.63v-30.639c0-1.477-0.265-2.967-0.787-4.476C58.491-42.581,57.687-43.965,56.592-45.227
			 M51.696-8.171c0,0.559-0.038,1.246-0.107,2.05c-0.063,0.806-0.26,1.561-0.573,2.271c-0.323,0.694-0.801,1.29-1.476,1.786
			c-0.668,0.486-1.634,0.736-2.894,0.736c-1.34,0-2.371-0.224-3.099-0.683c-0.737-0.461-1.269-1.033-1.582-1.739
			c-0.315-0.701-0.51-1.456-0.579-2.266c-0.075-0.804-0.112-1.527-0.112-2.153v-27.584c0-0.558,0.075-1.178,0.216-1.849
			c0.149-0.664,0.386-1.277,0.732-1.833c0.361-0.568,0.88-1.036,1.578-1.421c0.71-0.39,1.625-0.58,2.748-0.58
			c1.252,0,2.237,0.245,2.952,0.737c0.692,0.488,1.194,1.083,1.517,1.784c0.313,0.703,0.51,1.454,0.573,2.269
			c0.071,0.806,0.107,1.492,0.107,2.052v26.424H51.696z"/>
		<rect x="69.075" y="-48.6" fill="#FFFFFF" width="8.104" height="54.634"/>
		<path fill="#FFFFFF" d="M85.395-5.959c0,2.242,0.406,4.188,1.214,5.84c0.811,1.645,1.846,2.999,3.096,4.053
			c1.271,1.052,2.706,1.826,4.334,2.313c1.608,0.493,3.22,0.736,4.827,0.736c0.922,0,2.117-0.15,3.586-0.472
			c1.468-0.318,2.935-0.945,4.363-1.895c1.449-0.949,2.667-2.261,3.683-3.946c1.029-1.688,1.542-3.902,1.542-6.63v-30.637
			c0-1.477-0.271-2.967-0.794-4.476c-0.528-1.51-1.342-2.894-2.43-4.157c-1.084-1.264-2.462-2.305-4.154-3.107
			c-1.692-0.811-3.678-1.211-5.996-1.211c-1.62,0-3.214,0.262-4.791,0.79c-1.578,0.528-3.01,1.333-4.261,2.422
			c-1.275,1.085-2.286,2.438-3.058,4.047c-0.775,1.617-1.161,3.52-1.161,5.692V-5.959z M93.501-34.597
			c0-0.561,0.038-1.232,0.109-1.998c0.07-0.776,0.265-1.529,0.577-2.265c0.317-0.734,0.818-1.351,1.521-1.84
			c0.705-0.493,1.721-0.737,3.051-0.737c1.276,0,2.239,0.245,2.949,0.737c0.71,0.488,1.208,1.083,1.53,1.784
			c0.312,0.703,0.505,1.459,0.575,2.269c0.075,0.806,0.105,1.489,0.105,2.052v26.427c0,0.556-0.03,1.246-0.105,2.053
			c-0.07,0.8-0.263,1.559-0.575,2.267c-0.323,0.694-0.806,1.293-1.474,1.781c-0.671,0.489-1.62,0.741-2.9,0.741
			c-1.327,0-2.357-0.224-3.096-0.685c-0.739-0.46-1.266-1.037-1.583-1.737c-0.313-0.701-0.508-1.456-0.578-2.263
			c-0.072-0.811-0.109-1.531-0.109-2.156v-26.429H93.501z"/>
		<path fill="#FFFFFF" d="M130.032,6.041c1.904-3.378,3.166-6.686,3.794-9.954c0.636-3.261,0.943-6.017,0.943-8.261
			c0-1.407-0.088-2.721-0.258-3.951c-0.18-1.227-0.465-2.492-0.847-3.789c-0.394-1.298-0.886-2.721-1.534-4.264
			c-0.626-1.548-1.398-3.301-2.31-5.269c-0.85-1.892-1.523-3.526-2.053-4.889c-0.526-1.37-0.912-2.601-1.159-3.691
			c-0.234-1.083-0.405-2.104-0.479-3.049c-0.062-0.949-0.101-1.914-0.101-2.894c0-4.842,0.97-9.319,2.901-13.421
			c1.926-4.112,4.465-7.671,7.625-10.689h-11.042c-2.536,3.513-4.441,7.284-5.741,11.32c-1.301,4.034-1.957,8.263-1.957,12.682
			c0,3.163,0.356,6.021,1.063,8.577c0.694,2.565,1.748,5.396,3.154,8.479c0.831,1.825,1.561,3.404,2.156,4.739
			c0.596,1.332,1.065,2.56,1.41,3.684c0.354,1.12,0.618,2.225,0.801,3.313c0.169,1.087,0.261,2.298,0.261,3.637
			c0,3.159-0.64,6.279-1.944,9.367c-1.3,3.091-2.962,5.865-5.001,8.32h10.314V6.041z"/>
		<path fill="#FFFFFF" d="M143.93-44.072c1.464,1.333,2.907,2.17,4.319,2.525c1.397,0.353,2.974,0.526,4.733,0.526h1.998
			c1.825,0,3.146,0.438,3.944,1.313c0.808,0.879,1.225,1.92,1.225,3.112v4.522h-7.165c-2.313,0-4.206,0.351-5.684,1.054
			c-1.478,0.708-2.64,1.576-3.474,2.632c-0.845,1.054-1.419,2.179-1.738,3.371c-0.317,1.195-0.466,2.242-0.466,3.156v18.532
			c0,2.382,0.955,4.542,2.895,6.475c1.926,1.929,4.639,2.896,8.147,2.896h3.059c3.144,0,5.583-0.634,7.249-1.899
			c1.696-1.264,2.913-2.845,3.695-4.738c0.766-1.894,1.226-3.965,1.363-6.212c0.142-2.246,0.22-4.351,0.22-6.312v-23.476
			c0-1.333-0.261-2.721-0.79-4.161c-0.526-1.433-1.192-2.738-2.005-3.893c-0.805-1.162-1.682-2.106-2.634-2.845
			c-0.941-0.734-1.843-1.104-2.675-1.104h-19.173c0.354,0.848,0.758,1.667,1.224,2.477C142.649-45.32,143.223-44.631,143.93-44.072
			 M153.295-24.49h6.853v17.895c0,1.899-0.488,3.126-1.484,3.691c-0.981,0.561-2.066,0.84-3.26,0.84h-2.423
			c-0.63,0-1.335-0.105-2.104-0.32c-0.766-0.211-1.165-0.942-1.165-2.21v-16.738c0-1.613,0.331-2.542,1.004-2.787
			C151.386-24.367,152.247-24.49,153.295-24.49"/>
		<path fill="#FFFFFF" d="M183.401,6.041v-40.638c0-0.493,0.024-1.14,0.055-1.945c0.029-0.804,0.204-1.564,0.526-2.265
			c0.317-0.704,0.821-1.319,1.528-1.847c0.701-0.528,1.688-0.785,2.945-0.785c1.26,0,2.253,0.245,2.949,0.737
			c0.705,0.487,1.219,1.069,1.524,1.732c0.318,0.671,0.51,1.403,0.58,2.214c0.075,0.808,0.107,1.522,0.107,2.156V6.039h8.104
			v-40.638c0-2.24-0.216-4.19-0.625-5.845c-0.431-1.65-1.416-3.383-2.945-5.211c-1.193-1.405-2.719-2.398-4.534-2.999
			c-1.823-0.596-3.544-0.888-5.161-0.888c-2.104,0-3.981,0.364-5.63,1.104c-1.639,0.732-2.999,1.7-4.05,2.891
			c-1.195,1.267-2.075,2.736-2.626,4.423c-0.567,1.679-0.846,3.856-0.846,6.525V6.039h8.097V6.041z"/>
		<path fill="#1268B3" d="M227.264,83.726c0.799,0.471,1.931,0.792,3.165,0.792c2.633,0,4.19-1.39,4.19-3.396
			c0-1.68-1.02-2.654-2.948-3.376c-1.474-0.584-2.127-1.003-2.127-1.938c0-0.833,0.653-1.532,1.87-1.532
			c1.041,0,1.862,0.396,2.307,0.671l0.484-1.485c-0.605-0.395-1.603-0.693-2.746-0.693c-2.407,0-3.885,1.49-3.885,3.301
			c0,1.351,0.944,2.446,2.994,3.188c1.503,0.559,2.07,1.072,2.07,2.053c0,0.949-0.691,1.678-2.167,1.678
			c-1.021,0-2.088-0.416-2.705-0.791L227.264,83.726z M217.532,77.537c0.161-1.417,1.047-3.312,3.138-3.312
			c2.314,0,2.877,2.025,2.847,3.312H217.532z M225.427,79.003c0.037-0.235,0.06-0.534,0.06-0.955c0-2.075-0.947-5.278-4.644-5.278
			c-3.292,0-5.282,2.649-5.282,6.049c0,3.402,2.063,5.703,5.532,5.703c1.801,0,3.046-0.395,3.77-0.72l-0.374-1.463
			c-0.731,0.325-1.643,0.582-3.11,0.582c-2.063,0-3.827-1.146-3.872-3.916h7.921V79.003z M211.946,68.57
			c-0.77,0-1.281,0.584-1.281,1.279c0,0.703,0.484,1.257,1.238,1.257c0.811,0,1.303-0.556,1.303-1.257
			C213.206,69.132,212.69,68.57,211.946,68.57 M212.979,72.993h-2.054v11.271h2.054V72.993z M205.635,79.468
			c0,0.347-0.046,0.741-0.157,1.091c-0.417,1.306-1.565,2.101-2.84,2.101c-2.19,0-3.34-1.837-3.34-4.055
			c0-2.607,1.4-4.257,3.364-4.257c1.511,0,2.489,0.972,2.863,2.183c0.08,0.263,0.109,0.562,0.109,0.909V79.468z M207.686,76.069
			c0-1.346,0.018-2.282,0.095-3.076h-1.814l-0.064,1.699h-0.055c-0.5-0.928-1.556-1.924-3.512-1.924
			c-2.611,0-5.102,2.137-5.102,5.953c0,3.123,2.002,5.492,4.792,5.492c1.748,0,2.982-0.831,3.58-1.88h0.06v1.227
			c0,2.869-1.541,3.964-3.64,3.964c-1.391,0-2.562-0.414-3.3-0.912l-0.521,1.583c0.907,0.609,2.393,0.935,3.757,0.935
			c1.412,0,3-0.346,4.127-1.351c1.058-1.005,1.595-2.567,1.595-5.169v-6.541H207.686z M189.994,74.297c2.423,0,3.37,2.399,3.37,4.31
			c0,2.537-1.454,4.381-3.423,4.381c-2.005,0-3.398-1.864-3.398-4.328C186.545,76.532,187.588,74.297,189.994,74.297
			 M190.034,72.768c-3.088,0-5.586,2.207-5.586,5.953c0,3.563,2.372,5.797,5.397,5.797c2.713,0,5.61-1.814,5.61-5.983
			C195.458,75.115,193.278,72.768,190.034,72.768 M179.773,84.264h2.049V67.737h-2.049V84.264z M171.714,74.297
			c2.425,0,3.384,2.399,3.384,4.31c0,2.537-1.471,4.381-3.421,4.381c-2.008,0-3.402-1.864-3.402-4.328
			C168.274,76.532,169.32,74.297,171.714,74.297 M171.761,72.768c-3.096,0-5.574,2.207-5.574,5.953c0,3.563,2.356,5.797,5.388,5.797
			c2.697,0,5.614-1.814,5.614-5.983C177.188,75.115,174.999,72.768,171.761,72.768 M154.066,84.264h2.051v-6.78
			c0-0.35,0.052-0.697,0.144-0.952c0.369-1.138,1.411-2.092,2.744-2.092c1.932,0,2.605,1.516,2.605,3.327v6.497h2.049v-6.703
			c0-3.863-2.426-4.793-3.979-4.793c-1.87,0-3.169,1.039-3.722,2.088h-0.047l-0.112-1.863h-1.827
			c0.078,0.936,0.095,1.863,0.095,3.054V84.264z M141.153,84.264h2.044v-6.799c0-0.373,0.025-0.679,0.146-0.982
			c0.394-1.089,1.408-2.023,2.743-2.023c1.936,0,2.609,1.512,2.609,3.334v6.47h2.034v-6.704c0-3.863-2.405-4.793-3.93-4.793
			c-0.768,0-1.487,0.206-2.083,0.558c-0.636,0.35-1.147,0.884-1.48,1.457h-0.039v-7.048h-2.044V84.264z M138.401,82.336
			c-0.594,0.255-1.356,0.536-2.518,0.536c-2.236,0-3.917-1.607-3.917-4.211c0-2.337,1.4-4.27,3.994-4.27
			c1.109,0,1.885,0.281,2.363,0.531l0.473-1.552c-0.558-0.303-1.63-0.602-2.836-0.602c-3.685,0-6.052,2.529-6.052,6
			c0,3.452,2.208,5.752,5.604,5.752c1.521,0,2.706-0.395,3.237-0.647L138.401,82.336z M120.206,77.537
			c0.169-1.417,1.059-3.312,3.153-3.312c2.307,0,2.867,2.025,2.845,3.312H120.206z M128.106,79.003
			c0.049-0.235,0.079-0.534,0.079-0.955c0-2.075-0.964-5.278-4.667-5.278c-3.271,0-5.278,2.649-5.278,6.049
			c0,3.402,2.072,5.703,5.541,5.703c1.797,0,3.05-0.395,3.772-0.72l-0.376-1.463c-0.746,0.325-1.646,0.582-3.125,0.582
			c-2.059,0-3.803-1.146-3.859-3.916h7.913V79.003z M112.183,84.264h2.051V70.292h4.799V68.57h-11.617v1.722h4.767V84.264z
			 M96.13,69.683c1.319,0,1.841,1.08,1.841,2.038c0,1.346-1.021,2.183-2.609,3.089c-0.649-0.831-1.181-1.698-1.181-2.836
			C94.181,70.763,94.854,69.683,96.13,69.683 M95.729,82.987c-1.902,0-3.232-1.377-3.232-3.172c0-1.67,1.163-2.65,2.028-3.212
			c1.744,2.027,3.498,3.939,4.428,4.96C98.205,82.38,97.064,82.987,95.729,82.987 M103.831,84.264
			c-0.917-1.008-1.741-1.885-2.578-2.794c1.167-1.375,1.841-3.334,2.262-5.798h-1.867c-0.297,1.979-0.792,3.487-1.502,4.589
			c-1.009-1.122-2.498-2.822-3.835-4.356v-0.099c2.495-1.229,3.449-2.533,3.449-4.187c0-2.05-1.505-3.324-3.468-3.324
			c-2.605,0-3.978,1.95-3.978,3.885c0,1.093,0.486,2.258,1.301,3.282v0.071c-1.781,0.978-3.068,2.439-3.068,4.586
			c0,2.351,1.768,4.398,4.813,4.398c1.752,0,3.242-0.531,4.584-1.769c0.613,0.606,1.021,1.074,1.476,1.515H103.831z M74.119,84.264
			h2.051v-6.799c0-0.373,0.025-0.679,0.137-0.982c0.399-1.089,1.419-2.023,2.759-2.023c1.931,0,2.596,1.512,2.596,3.334v6.47h2.053
			v-6.704c0-3.863-2.423-4.793-3.932-4.793c-0.773,0-1.496,0.206-2.106,0.558c-0.62,0.35-1.14,0.884-1.455,1.457H76.17v-7.048
			h-2.051V84.264z M71.376,82.336c-0.585,0.255-1.35,0.536-2.521,0.536c-2.235,0-3.903-1.607-3.903-4.211
			c0-2.337,1.393-4.27,3.978-4.27c1.113,0,1.885,0.281,2.365,0.531l0.473-1.552c-0.562-0.303-1.639-0.602-2.838-0.602
			c-3.687,0-6.048,2.529-6.048,6c0,3.452,2.203,5.752,5.604,5.752c1.511,0,2.704-0.395,3.237-0.647L71.376,82.336z M56.318,84.264
			h2.036v-6.008c0-0.326,0.021-0.678,0.084-0.95c0.268-1.538,1.292-2.612,2.736-2.612c0.28,0,0.483,0,0.7,0.049v-1.932
			c-0.188-0.024-0.35-0.042-0.555-0.042c-1.378,0-2.629,0.951-3.14,2.466h-0.077l-0.09-2.24h-1.795
			c0.072,1.049,0.103,2.193,0.103,3.52v7.75H56.318z M51.029,80.47c0,0.186-0.025,0.42-0.086,0.652
			c-0.331,0.952-1.288,1.882-2.777,1.882c-1.029,0-1.909-0.596-1.909-1.955c0-2.187,2.534-2.581,4.772-2.537V80.47z M53.004,77.351
			c0-2.236-0.841-4.583-4.291-4.583c-1.405,0-2.781,0.393-3.708,0.975l0.461,1.372c0.791-0.535,1.884-0.839,2.947-0.839
			c2.314-0.018,2.573,1.678,2.573,2.59v0.227c-4.357-0.019-6.78,1.47-6.78,4.194c0,1.631,1.168,3.233,3.439,3.233
			c1.618,0,2.826-0.792,3.456-1.671h0.071l0.157,1.415h1.836c-0.109-0.771-0.161-1.727-0.161-2.701V77.351z M34.589,77.537
			c0.163-1.417,1.05-3.312,3.154-3.312c2.293,0,2.862,2.025,2.836,3.312H34.589z M42.47,79.003c0.059-0.235,0.083-0.534,0.083-0.955
			c0-2.075-0.952-5.278-4.667-5.278c-3.277,0-5.277,2.649-5.277,6.049c0,3.402,2.07,5.703,5.545,5.703
			c1.795,0,3.048-0.395,3.763-0.72l-0.368-1.463c-0.745,0.325-1.659,0.582-3.118,0.582c-2.076,0-3.823-1.146-3.871-3.916h7.908
			V79.003z M23.439,83.726c0.782,0.471,1.938,0.792,3.169,0.792c2.628,0,4.188-1.39,4.188-3.396c0-1.68-1.029-2.654-2.961-3.376
			c-1.464-0.584-2.119-1.003-2.119-1.938c0-0.833,0.655-1.532,1.867-1.532c1.042,0,1.861,0.396,2.308,0.671l0.485-1.485
			c-0.609-0.395-1.614-0.693-2.747-0.693c-2.407,0-3.887,1.49-3.887,3.301c0,1.351,0.952,2.446,2.999,3.188
			c1.49,0.559,2.074,1.072,2.074,2.053c0,0.949-0.705,1.678-2.17,1.678c-1.017,0-2.095-0.416-2.72-0.791L23.439,83.726z
			 M13.708,77.537c0.166-1.417,1.047-3.312,3.147-3.312c2.292,0,2.858,2.025,2.833,3.312H13.708z M21.594,79.003
			c0.049-0.235,0.068-0.534,0.068-0.955c0-2.075-0.948-5.278-4.646-5.278c-3.291,0-5.289,2.649-5.289,6.049
			c0,3.402,2.082,5.703,5.548,5.703c1.784,0,3.051-0.395,3.763-0.72l-0.367-1.463c-0.74,0.325-1.643,0.582-3.124,0.582
			c-2.073,0-3.823-1.146-3.864-3.916h7.909V79.003z M2.024,70.199c0.344-0.093,1.022-0.161,2.001-0.161
			c2.138,0,3.609,0.89,3.609,2.913c0,1.792-1.375,2.981-3.542,2.981H2.024V70.199z M-0.001,84.264h2.025v-6.799H3.93
			c1.831,0.071,2.694,0.881,3.167,3.049c0.419,1.954,0.77,3.28,1.029,3.75h2.083c-0.319-0.609-0.693-2.123-1.202-4.308
			c-0.369-1.63-1.104-2.741-2.284-3.164v-0.073c1.627-0.558,2.933-1.937,2.933-3.979c0-1.232-0.48-2.311-1.229-3.006
			c-0.954-0.858-2.382-1.279-4.535-1.279c-1.397,0-2.871,0.137-3.892,0.33v15.479H-0.001z"/>
		<path fill="#1268B3" d="M204.339,56.326h2.044V39.8h-2.044V56.326z M199.049,52.53c0,0.192-0.024,0.42-0.085,0.657
			c-0.337,0.949-1.293,1.88-2.785,1.88c-1.016,0-1.902-0.601-1.902-1.95c0-2.194,2.54-2.586,4.772-2.541V52.53z M201.021,49.413
			c0-2.237-0.837-4.589-4.27-4.589c-1.434,0-2.8,0.393-3.729,0.975l0.465,1.379c0.787-0.536,1.888-0.841,2.946-0.841
			c2.307-0.021,2.564,1.678,2.564,2.59v0.23c-4.35-0.021-6.778,1.465-6.778,4.188c0,1.636,1.167,3.238,3.456,3.238
			c1.6,0,2.802-0.79,3.436-1.673h0.086l0.148,1.416h1.844c-0.115-0.762-0.171-1.72-0.171-2.702v-4.211H201.021z M190.365,54.393
			c-0.585,0.258-1.343,0.541-2.516,0.541c-2.233,0-3.908-1.612-3.908-4.217c0-2.327,1.399-4.26,3.978-4.26
			c1.121,0,1.877,0.275,2.376,0.531l0.464-1.556c-0.551-0.304-1.621-0.608-2.838-0.608c-3.678,0-6.06,2.536-6.06,6.006
			c0,3.454,2.222,5.753,5.618,5.753c1.521,0,2.711-0.397,3.236-0.654L190.365,54.393z M178.254,40.636
			c-0.764,0-1.267,0.579-1.267,1.276c0,0.703,0.479,1.258,1.221,1.258c0.819,0,1.313-0.558,1.313-1.258
			C179.521,41.196,179.003,40.636,178.254,40.636 M179.271,45.054h-2.036v11.271h2.036V45.054z M171.941,51.534
			c0,0.348-0.047,0.748-0.147,1.091c-0.424,1.305-1.563,2.097-2.847,2.097c-2.188,0-3.337-1.84-3.337-4.049
			c0-2.612,1.402-4.27,3.356-4.27c1.516,0,2.493,0.984,2.865,2.193c0.103,0.257,0.109,0.561,0.109,0.907V51.534z M173.995,48.13
			c0-1.349,0.025-2.273,0.09-3.075h-1.813l-0.064,1.698h-0.049c-0.508-0.928-1.565-1.929-3.52-1.929
			c-2.604,0-5.093,2.142-5.093,5.962c0,3.123,1.997,5.489,4.796,5.489c1.748,0,2.983-0.83,3.592-1.884h0.035v1.237
			c0,2.856-1.524,3.96-3.627,3.96c-1.396,0-2.561-0.423-3.3-0.912l-0.518,1.583c0.91,0.604,2.402,0.932,3.748,0.932
			c1.426,0,3.004-0.352,4.118-1.356c1.061-0.994,1.604-2.559,1.604-5.164V48.13z M156.3,46.358c2.423,0,3.38,2.4,3.38,4.314
			c0,2.541-1.473,4.372-3.419,4.372c-2.01,0-3.397-1.859-3.397-4.33C152.863,48.596,153.908,46.358,156.3,46.358 M156.358,44.823
			c-3.111,0-5.588,2.21-5.588,5.962c0,3.565,2.369,5.795,5.4,5.795c2.692,0,5.604-1.813,5.604-5.983
			C161.773,47.176,159.576,44.823,156.358,44.823 M146.086,56.326h2.032V39.8h-2.032V56.326z M138.027,46.358
			c2.425,0,3.382,2.4,3.382,4.314c0,2.541-1.47,4.372-3.421,4.372c-2.007,0-3.403-1.859-3.403-4.33
			C134.583,48.596,135.619,46.358,138.027,46.358 M138.078,44.823c-3.109,0-5.594,2.21-5.594,5.962c0,3.565,2.385,5.795,5.411,5.795
			c2.696,0,5.604-1.813,5.604-5.983C143.5,47.176,141.31,44.823,138.078,44.823 M128.88,40.636c-0.768,0-1.273,0.579-1.273,1.276
			c0,0.703,0.482,1.258,1.219,1.258c0.817,0,1.306-0.558,1.306-1.258C130.131,41.196,129.63,40.636,128.88,40.636 M129.901,45.054
			h-2.045v11.271h2.045V45.054z M117.326,48.804h1.689c2.204,0,4.052,0.91,4.052,3.03c0,2.277-1.938,3.049-4.032,3.049
			c-0.717,0-1.286-0.021-1.709-0.098V48.804z M117.326,42.22c0.331-0.074,0.868-0.14,1.8-0.14c2.042,0,3.43,0.745,3.43,2.565
			c0,1.512-1.269,2.654-3.381,2.654h-1.851v-5.08H117.326z M115.309,56.275c0.667,0.1,1.739,0.187,3.138,0.187
			c2.572,0,4.34-0.463,5.413-1.459c0.808-0.751,1.342-1.789,1.342-3.15c0-2.328-1.75-3.559-3.231-3.913v-0.063
			c1.637-0.579,2.65-1.908,2.65-3.452c0-1.237-0.512-2.164-1.326-2.771c-0.953-0.785-2.251-1.138-4.279-1.138
			c-1.402,0-2.83,0.135-3.706,0.352v15.408H115.309z M102.593,51.113h10.247v-1.4h-10.247V51.113z M98.111,56.326h2.036V39.8h-2.036
			V56.326z M92.828,52.53c0,0.192-0.031,0.42-0.107,0.657c-0.32,0.949-1.279,1.88-2.761,1.88c-1.036,0-1.914-0.601-1.914-1.95
			c0-2.194,2.539-2.586,4.785-2.541v1.954H92.828z M94.79,49.413c0-2.237-0.833-4.589-4.28-4.589c-1.416,0-2.806,0.393-3.721,0.975
			l0.463,1.379c0.79-0.536,1.879-0.841,2.958-0.841c2.305-0.021,2.564,1.678,2.564,2.59v0.23c-4.365-0.021-6.78,1.465-6.78,4.188
			c0,1.636,1.156,3.238,3.45,3.238c1.602,0,2.815-0.79,3.441-1.673h0.071l0.156,1.416h1.843c-0.114-0.762-0.166-1.72-0.166-2.702
			V49.413z M84.13,54.393c-0.589,0.258-1.35,0.541-2.515,0.541c-2.228,0-3.915-1.612-3.915-4.217c0-2.327,1.398-4.26,3.987-4.26
			c1.118,0,1.89,0.275,2.37,0.531l0.466-1.556c-0.562-0.304-1.632-0.608-2.836-0.608c-3.681,0-6.05,2.536-6.05,6.006
			c0,3.454,2.197,5.753,5.611,5.753c1.507,0,2.694-0.397,3.232-0.654L84.13,54.393z M72.027,40.636
			c-0.784,0-1.281,0.579-1.281,1.276c0,0.703,0.492,1.258,1.235,1.258c0.816,0,1.297-0.558,1.297-1.258
			C73.281,41.196,72.772,40.636,72.027,40.636 M73.052,45.054h-2.049v11.271h2.049V45.054z M65.555,51.6
			c0,0.321-0.024,0.604-0.096,0.885c-0.373,1.517-1.632,2.448-3.003,2.448c-2.197,0-3.333-1.892-3.333-4.172
			c0-2.468,1.258-4.332,3.376-4.332c1.545,0,2.662,1.075,2.96,2.359c0.071,0.248,0.096,0.598,0.096,0.85V51.6z M65.555,39.798v6.729
			h-0.051c-0.509-0.889-1.645-1.703-3.4-1.703c-2.724,0-5.069,2.284-5.052,6.033c0,3.429,2.124,5.725,4.844,5.725
			c1.837,0,3.189-0.95,3.792-2.205h0.077l0.091,1.95h1.813c-0.046-0.762-0.089-1.903-0.089-2.911V39.8h-2.024V39.798z
			 M47.368,49.597c0.165-1.419,1.043-3.31,3.147-3.31c2.305,0,2.863,2.031,2.845,3.31H47.368z M55.277,51.06
			c0.024-0.23,0.052-0.531,0.052-0.949c0-2.07-0.945-5.288-4.655-5.288c-3.276,0-5.274,2.655-5.274,6.053
			c0,3.408,2.059,5.704,5.541,5.704c1.784,0,3.041-0.395,3.771-0.72l-0.374-1.468c-0.745,0.33-1.658,0.587-3.118,0.587
			c-2.083,0-3.823-1.143-3.873-3.918h7.929V51.06z M41.021,56.326h1.996l-0.979-15.689h-2.581l-2.789,7.586
			c-0.71,1.979-1.263,3.698-1.681,5.284h-0.042c-0.418-1.632-0.933-3.356-1.587-5.284l-2.674-7.586h-2.585l-1.092,15.689h1.922
			l0.426-6.729c0.131-2.373,0.259-4.98,0.305-6.941h0.038c0.446,1.863,1.047,3.87,1.802,6.102l2.557,7.473h1.536l2.778-7.612
			c0.779-2.163,1.409-4.14,1.976-5.962h0.038c0,1.937,0.14,4.591,0.265,6.779L41.021,56.326z"/>
	</g>
	
		<line fill="none" stroke="#1268B3" stroke-width="0.9633" stroke-linecap="round" stroke-linejoin="round" stroke-miterlimit="10" x1="271.362" y1="-70.788" x2="271.362" y2="89.185"/>
	<g>
		<path fill="#1268B3" d="M434.531-16.058c-3.065-0.676-6.16-0.992-9.247-1.024c0.007-0.351,0.05-0.692,0.05-1.043
			c0-8.482-2.354-16.403-6.383-23.226c2.757-1.578,5.389-3.429,7.825-5.62l1.829-1.646l-3.296-3.659l-1.826,1.646
			c-2.252,2.03-4.697,3.748-7.257,5.185C407.854-56.678,394.514-64,379.462-64c-6.226,0-12.155,1.258-17.572,3.512
			c-1.419-2.473-2.611-5.088-3.484-7.853l-0.741-2.347l-4.694,1.485l0.743,2.349c0.945,2.985,2.218,5.821,3.731,8.505
			c-9.323,5.125-16.654,13.407-20.607,23.381c-1.943-0.372-3.943-0.587-5.995-0.587c-2.28,0-4.511,0.266-6.685,0.735l27.691-28.157
			h-40.357v4.921h28.61l-26.043,26.481l0.456,0.448l-0.073,0.038l2.209,4.398l2.198-1.106c3.736-1.88,7.776-2.834,11.995-2.834
			c1.51,0,2.98,0.155,4.421,0.396c-1.059,3.864-1.674,7.909-1.674,12.105c0,13.495,5.893,25.61,15.199,34.012
			c-4.75,4.32-11.039,6.975-17.946,6.975c-10.14,0-19.282-5.622-23.875-14.67l-1.109-2.197l-4.396,2.227l1.114,2.195
			c5.436,10.714,16.265,17.368,28.267,17.368c8.454,0,16.122-3.35,21.809-8.765c7.553,5.468,16.797,8.73,26.81,8.73
			c0.117,0,0.234-0.02,0.352-0.02c-0.011,3.156,0.281,6.351,0.958,9.536l0.509,2.41l4.813-1.021l-0.511-2.41
			c-0.626-2.948-0.892-5.903-0.856-8.825c20.852-2.397,37.456-18.821,40.172-39.576c2.855,0.007,5.725,0.281,8.563,0.909
			l2.405,0.529l1.059-4.809L434.531-16.058z M411.709-43.281c-3.88,1.577-7.958,2.523-12.095,2.83l3.949-10.707
			C406.629-48.916,409.369-46.269,411.709-43.281z M380.471-59.027c2.221,0.056,4.405,0.278,6.53,0.676l-4.575,15.408
			c-1.984-0.755-3.925-1.677-5.813-2.761L380.471-59.027z M391.789-57.173c2.645,0.833,5.164,1.94,7.544,3.268l-4.98,13.51
			c-2.424-0.143-4.835-0.522-7.221-1.109L391.789-57.173z M375.296-58.866l-2.971,10.26c-2.9-2.21-5.466-4.785-7.642-7.667
			C368.034-57.578,371.581-58.489,375.296-58.866z M357.585-3.885c0,0.477-0.043,0.942-0.069,1.417l-13.627,4.542
			c-1.073-1.886-1.983-3.869-2.753-5.928l15.969-5.001C357.409-7.24,357.585-5.585,357.585-3.885z M339.689-8.559
			c-0.444-1.849-0.79-3.729-0.976-5.665l14.05-4.937c1.202,1.722,2.2,3.591,2.975,5.575L339.689-8.559z M338.578-19.395
			c0.101-3.308,0.598-6.513,1.443-9.578c3.498,1.283,6.657,3.27,9.302,5.803L338.578-19.395z M346.698,6.326l9.956-3.318
			c-0.911,3.399-2.468,6.529-4.54,9.251C350.118,10.464,348.305,8.479,346.698,6.326z M355.948,15.342
			c4.098-5.337,6.563-11.991,6.563-19.226c0-13.688-8.745-25.339-20.925-29.755c3.619-8.802,10.204-16.077,18.523-20.559
			c3.691,5.141,8.423,9.508,14.022,12.743c7.049,4.068,14.829,6.064,22.553,6.064c6.12,0,12.188-1.297,17.853-3.756
			c3.701,6.153,5.875,13.33,5.875,21.022c0,0.432-0.052,0.85-0.066,1.278c-6.287,0.631-12.432,2.542-18.02,5.772
			c-12.646,7.297-20.666,19.965-22.246,33.87c-0.208,0.001-0.407,0.031-0.615,0.031C370.713,22.824,362.609,20.039,355.948,15.342z
			 M388.854,10.207l8.598,8.398c-3.823,1.878-7.969,3.173-12.339,3.784C385.701,18.132,386.97,14.026,388.854,10.207z
			 M391.377,5.788c1.244-1.88,2.665-3.654,4.229-5.314l12.018,11.051c-1.767,1.679-3.671,3.212-5.712,4.559L391.377,5.788z
			 M399.197-2.913c1.728-1.435,3.591-2.749,5.588-3.904c0.156-0.089,0.32-0.159,0.478-0.247l10.028,8.718
			c-1.235,2.231-2.664,4.343-4.282,6.296L399.197-2.913z M417.469-2.972l-7.341-6.382c3.146-1.244,6.416-2.085,9.747-2.497
			C419.399-8.767,418.596-5.791,417.469-2.972z"/>
		<g enable-background="new    ">
			<path fill="#1268B3" d="M304.643,59.74l-0.786,3.229h-3.87l4.036-13.95h4.987l4.161,13.95h-4.035l-0.891-3.229H304.643z
				 M307.728,56.988l-0.644-2.504c-0.206-0.787-0.475-1.945-0.702-2.753h-0.042c-0.206,0.808-0.412,1.966-0.6,2.753l-0.6,2.504
				H307.728z"/>
			<path fill="#1268B3" d="M314.959,62.969v-13.95h4.408l2.215,4.285c0.765,1.386,1.572,3.248,2.194,4.884h0.063
				c-0.207-1.842-0.29-3.786-0.29-5.878v-3.291h3.415v13.95h-3.932l-2.38-4.636c-0.768-1.47-1.678-3.354-2.341-5.029h-0.082
				c0.104,1.884,0.144,3.974,0.144,6.251v3.414H314.959z"/>
			<path fill="#1268B3" d="M329.561,62.969v-13.95h4.407l2.216,4.285c0.766,1.386,1.573,3.248,2.191,4.884h0.063
				c-0.207-1.842-0.291-3.786-0.291-5.878v-3.291h3.415v13.95h-3.932l-2.38-4.636c-0.766-1.47-1.676-3.354-2.339-5.029h-0.084
				c0.105,1.884,0.147,3.974,0.147,6.251v3.414H329.561z"/>
			<path fill="#1268B3" d="M347.906,49.019v13.95h-3.747v-13.95H347.906z"/>
			<path fill="#1268B3" d="M353.87,62.969l-4.43-13.95h4.1l1.488,5.485c0.436,1.573,0.808,3.084,1.161,4.885h0.042
				c0.33-1.697,0.723-3.312,1.138-4.823l1.511-5.547h3.975l-4.555,13.95H353.87z"/>
			<path fill="#1268B3" d="M373.128,57.34h-5.009v2.566h5.608v3.063h-9.354v-13.95h9.064v3.063h-5.319v2.235h5.009V57.34z"/>
			<path fill="#1268B3" d="M375.805,49.207c1.056-0.166,2.649-0.291,4.511-0.291c2.132,0,3.664,0.291,4.72,1.077
				c0.89,0.704,1.366,1.696,1.366,3.042c0,1.739-1.305,2.96-2.38,3.375v0.061c0.91,0.414,1.428,1.304,1.781,2.505
				c0.412,1.428,0.868,3.456,1.136,3.994h-3.807c-0.208-0.414-0.58-1.49-0.973-3.229c-0.373-1.654-0.89-2.006-2.05-2.006h-0.6v5.235
				h-3.705V49.207z M379.51,55.043h0.974c1.406,0,2.214-0.683,2.214-1.718c0-1.034-0.684-1.636-1.924-1.636
				c-0.706,0-1.077,0.021-1.264,0.084V55.043z"/>
			<path fill="#1268B3" d="M388.831,59.244c0.848,0.436,2.214,0.87,3.622,0.87c1.283,0,1.903-0.435,1.903-1.139
				c0-0.684-0.62-1.077-2.193-1.615c-2.359-0.826-3.932-2.132-3.932-4.201c0-2.462,2.09-4.367,5.607-4.367
				c1.655,0,2.857,0.312,3.766,0.726l-0.786,2.979c-0.6-0.27-1.634-0.662-3.02-0.662c-1.14,0-1.762,0.414-1.762,1.034
				c0,0.704,0.746,0.994,2.506,1.636c2.505,0.932,3.621,2.277,3.621,4.222c0,2.401-1.862,4.449-5.938,4.449
				c-1.678,0-3.313-0.433-4.1-0.848L388.831,59.244z"/>
			<path fill="#1268B3" d="M403.864,59.74l-0.786,3.229h-3.871l4.035-13.95h4.987l4.163,13.95h-4.037l-0.892-3.229H403.864z
				 M406.947,56.988l-0.642-2.504c-0.206-0.787-0.476-1.945-0.704-2.753h-0.04c-0.208,0.808-0.414,1.966-0.6,2.753l-0.602,2.504
				H406.947z"/>
			<path fill="#1268B3" d="M414.18,49.207c1.056-0.166,2.649-0.291,4.511-0.291c2.132,0,3.664,0.291,4.72,1.077
				c0.89,0.704,1.367,1.696,1.367,3.042c0,1.739-1.306,2.96-2.381,3.375v0.061c0.911,0.414,1.428,1.304,1.781,2.505
				c0.412,1.428,0.868,3.456,1.136,3.994h-3.807c-0.207-0.414-0.58-1.49-0.973-3.229c-0.372-1.654-0.89-2.006-2.05-2.006h-0.6v5.235
				h-3.705V49.207z M417.885,55.043h0.974c1.406,0,2.214-0.683,2.214-1.718c0-1.034-0.684-1.636-1.924-1.636
				c-0.706,0-1.077,0.021-1.264,0.084V55.043z"/>
			<path fill="#1268B3" d="M429.752,62.969v-5.63l-4.386-8.32h4.283l1.179,3.147c0.374,0.972,0.644,1.676,0.953,2.586h0.04
				c0.269-0.849,0.538-1.636,0.891-2.586l1.14-3.147h4.222l-4.574,8.177v5.773H429.752z"/>
		</g>
		<g enable-background="new    ">
			<path fill="#1268B3" d="M323.221,74.281h-0.042l-2.649,1.18l-0.601-2.773l3.852-1.696h3.04v13.452h-3.6V74.281z"/>
			<path fill="#1268B3" d="M332.004,81.752c0.414,0.042,0.702,0.042,1.324,0.021c0.932-0.021,1.884-0.228,2.565-0.621
				c0.892-0.496,1.43-1.263,1.656-2.028l-0.041-0.021c-0.539,0.498-1.325,0.768-2.483,0.768c-2.214,0-4.283-1.47-4.283-4.224
				c0-2.689,2.212-4.885,5.277-4.885c3.766,0,5.359,2.837,5.359,5.837c0,2.752-0.848,4.781-2.38,6.147
				c-1.386,1.241-3.291,1.863-5.671,1.903c-0.476,0.021-0.992-0.02-1.324-0.04V81.752z M334.446,75.398
				c0,0.952,0.476,1.862,1.594,1.862c0.724,0,1.157-0.309,1.365-0.641c0.104-0.207,0.145-0.436,0.145-0.85
				c0.021-1.056-0.393-2.317-1.635-2.317C335.086,73.453,334.426,74.219,334.446,75.398z"/>
			<path fill="#1268B3" d="M343.869,81.752c0.416,0.042,0.704,0.042,1.325,0.021c0.933-0.021,1.883-0.228,2.566-0.621
				c0.89-0.496,1.428-1.263,1.655-2.028l-0.04-0.021c-0.539,0.498-1.325,0.768-2.483,0.768c-2.216,0-4.285-1.47-4.285-4.224
				c0-2.689,2.214-4.885,5.277-4.885c3.768,0,5.361,2.837,5.361,5.837c0,2.752-0.849,4.781-2.38,6.147
				c-1.388,1.241-3.292,1.863-5.672,1.903c-0.476,0.021-0.993-0.02-1.325-0.04V81.752z M346.313,75.398
				c0,0.952,0.475,1.862,1.594,1.862c0.724,0,1.158-0.309,1.366-0.641c0.104-0.207,0.144-0.436,0.144-0.85
				c0.021-1.056-0.392-2.317-1.634-2.317C346.953,73.453,346.291,74.219,346.313,75.398z"/>
			<path fill="#1268B3" d="M354.784,84.443v-2.256l1.863-1.636c2.732-2.359,4.12-3.766,4.141-5.133c0-0.974-0.643-1.676-2.009-1.676
				c-1.117,0-2.132,0.56-2.877,1.096l-1.014-2.668c1.035-0.768,2.731-1.409,4.637-1.409c3.124,0,4.987,1.697,4.987,4.347
				c0,2.152-1.533,3.892-3.127,5.195l-1.324,1.034v0.042h4.68v3.063H354.784z"/>
			<path fill="#1268B3" d="M371.971,77.862v2.42h-5.547v-2.42H371.971z"/>
			<path fill="#1268B3" d="M373.444,84.443v-2.256l1.862-1.636c2.733-2.359,4.121-3.766,4.142-5.133c0-0.974-0.643-1.676-2.01-1.676
				c-1.116,0-2.132,0.56-2.876,1.096l-1.014-2.668c1.034-0.768,2.731-1.409,4.636-1.409c3.125,0,4.988,1.697,4.988,4.347
				c0,2.152-1.533,3.892-3.127,5.195l-1.324,1.034v0.042h4.68v3.063H373.444z"/>
			<path fill="#1268B3" d="M395.681,77.696c0,3.974-1.676,6.975-5.298,6.975c-3.85,0-5.279-3.395-5.279-6.933
				c0-3.644,1.513-6.977,5.298-6.977C394.335,70.761,395.681,74.26,395.681,77.696z M388.829,77.717
				c-0.021,2.919,0.601,4.159,1.594,4.159c0.954,0,1.532-1.262,1.532-4.159c0-2.836-0.559-4.14-1.554-4.14
				C389.451,73.577,388.829,74.819,388.829,77.717z"/>
			<path fill="#1268B3" d="M397.179,84.443v-2.256l1.862-1.636c2.733-2.359,4.119-3.766,4.141-5.133
				c0-0.974-0.642-1.676-2.009-1.676c-1.118,0-2.132,0.56-2.876,1.096l-1.014-2.668c1.035-0.768,2.729-1.409,4.635-1.409
				c3.124,0,4.987,1.697,4.987,4.347c0,2.152-1.531,3.892-3.125,5.195l-1.324,1.034v0.042h4.678v3.063H397.179z"/>
			<path fill="#1268B3" d="M409.044,84.443v-2.256l1.863-1.636c2.732-2.359,4.12-3.766,4.142-5.133c0-0.974-0.644-1.676-2.01-1.676
				c-1.117,0-2.132,0.56-2.877,1.096l-1.013-2.668c1.034-0.768,2.73-1.409,4.636-1.409c3.124,0,4.987,1.697,4.987,4.347
				c0,2.152-1.532,3.892-3.126,5.195l-1.325,1.034v0.042h4.68v3.063H409.044z"/>
		</g>
	</g>
</g>
</svg>
