<svg xmlns="http://www.w3.org/2000/svg" width="250.337" height="71.14" viewBox="0 0 250.337 71.14">
  <g id="Group_646" data-name="Group 646" transform="translate(0)">
    <g id="Group_1" data-name="Group 1" transform="translate(47.527 39.906)">
      <path id="Path_1" data-name="Path 1" d="M-27.6-34.072v-.08l-6.118-12.035a8.078,8.078,0,0,0,5.635-8.05c0-7.165-6-8.614-10.948-8.614H-52.313l.04,3.784v21.212l-.04,3.784h7l-.04-3.784v-7.406h5.031l4.79,11.19ZM-45.35-57.82h4.95c2.737,0,5.313.483,5.313,3.784,0,3.1-2.576,3.743-5.152,3.743H-45.35Zm43.8,8.05a21.387,21.387,0,0,1-3.26,5.917c-2.093-2.053-2.7-2.9-4.79-5.273,3.623-1.57,6.8-3.542,6.8-7.527,0-4.548-3.985-6.762-8.855-6.762-7.286,0-9.338,4.468-9.338,7.486,0,1.771.765,3.663,2.536,5.917-4.025,1.529-7.728,3.944-7.728,8.9,0,5.595,4.75,7.768,10.3,7.768a17.183,17.183,0,0,0,9.9-2.979,11.15,11.15,0,0,0,7.688,2.858,6.529,6.529,0,0,0,2.335-.322v-5.393a9.081,9.081,0,0,1-1.771.161c-1.006,0-1.972-.282-3.582-1.569a28.762,28.762,0,0,0,4.75-7.446Zm-13,11.834c-2.455,0-4.91-1.006-4.91-3.985,0-2.335,1.529-3.582,3.824-4.709,2.053,2.455,4.065,4.629,6.319,7a9.4,9.4,0,0,1-5.233,1.691m-.08-18.555c0-1.61,1.167-2.7,3.18-2.7a2.95,2.95,0,0,1,3.22,3.1c0,2.254-1.771,3.26-3.985,4.065-1.61-1.811-2.415-3.14-2.415-4.468M7.671-59.067v21.212l-.04,3.784h11.19c7.607,0,14.933-3.461,14.933-14.249,0-10.545-7.165-14.53-14.933-14.53H7.631Zm6.923,1.248h3.542c5.233,0,8.453,2.777,8.453,9.58s-3.26,9.177-8.453,9.177H14.594Zm28.119-6.762a6.16,6.16,0,0,0-6.242,6.218,6.073,6.073,0,0,0,6.242,6.078,6.079,6.079,0,0,0,6.266-6.078,6.18,6.18,0,0,0-6.266-6.218m.024,1.032a5.073,5.073,0,0,1,5.115,5.139,5.039,5.039,0,0,1-5.115,5.116,5.02,5.02,0,0,1-5.092-5.116,5.054,5.054,0,0,1,5.092-5.139M42.9-57.8l1.291,2.581h1.83l-1.6-2.769a1.845,1.845,0,0,0,1.455-1.877c0-1.807-1.5-2.112-2.675-2.112H40.039v6.758h1.5V-57.8Zm-1.361-3.1h1.337c.7,0,1.431.094,1.431,1.033,0,.845-.728.985-1.431.985H41.541Z" transform="translate(52.313 64.582)" fill="#1c3554"/>
    </g>
    <g id="Group_2" data-name="Group 2" transform="translate(47.527 0.064)">
      <path id="Path_2" data-name="Path 2" d="M-.045-27.914l-.04,3.784H14.848c5.273,0,10.465-1.731,10.465-7.446,0-5.957-5.675-7.165-6.883-7.245v-.2c1.288-.121,6.038-1.691,6.038-6.722,0-5.514-5.8-7.164-11.391-7.164H-.085c0,.04.04,3.784.04,3.784Zm12.4-8.453c3.1,0,5.675.885,5.675,3.9,0,2.174-1.328,3.542-4.589,3.542H6.878v-7.446ZM6.878-48.079h5.8c3.14,0,4.87,1.006,4.87,3.381,0,2.535-2.133,3.623-5.233,3.623H6.878ZM35.887-24.13l-.04-3.743V-41l.04-3.743H29.326L29.366-41v13.121l-.04,3.743Zm-.04-28.779h-6.48v5.595h6.48Zm0,5.595M50.73-23.446A10.812,10.812,0,0,0,62-34.394c0-5.957-4.387-10.988-11.27-10.988S39.42-40.351,39.42-34.394c0,5.876,4.428,10.948,11.31,10.948m0-4.307c-2.7,0-4.548-2.013-4.548-6.641,0-4.669,1.851-6.681,4.548-6.681,2.656,0,4.508,2.013,4.508,6.681,0,4.629-1.852,6.641-4.508,6.641M71.217-24.13h7.607l9.62-28.779h-6.8l-6.2,20.487h-.08L68.8-52.909H61.034Zm33.154-6.158A6.356,6.356,0,0,1,99.3-27.753c-2.938,0-5.031-1.65-5.192-5.555h15.5c.161-6-2.9-12.075-10.787-12.075-6.118,0-10.827,4.266-10.827,11.31,0,6.8,4.629,10.626,11.149,10.626,6,0,9.016-3.22,10.143-5.112ZM98.857-41.317c2.858,0,4.266,1.972,4.266,4.508H94.268c.523-3.14,2.174-4.508,4.589-4.508M133.846-24.13l-.04-3.743V-38.137c0-4.91-2.576-7.2-6.641-7.2a9.589,9.589,0,0,0-7.607,3.784h-.081v-3.18H113.2l.04,3.743v13.121l-.04,3.743h6.561l-.04-3.743v-9.7a6.086,6.086,0,0,1,4.789-2.9c1.852,0,2.818,1.208,2.818,3.7v8.9l-.04,3.743Zm12.469.6a8.039,8.039,0,0,0,6.561-3.1h.08v2.5h6.32l-.04-3.7V-49.166l.04-3.743h-6.561l.04,3.743v6.279h-.08a6.979,6.979,0,0,0-5.876-2.456c-5.353,0-9.3,3.824-9.3,10.948s3.944,10.868,8.814,10.868m2.295-4.226c-3.059,0-4.347-2.335-4.347-6.681,0-4.267,1.248-6.641,4.387-6.641a4.463,4.463,0,0,1,4.105,3.179v7.084a4.71,4.71,0,0,1-4.145,3.059m25.518,4.307A10.811,10.811,0,0,0,185.4-34.394c0-5.957-4.387-10.988-11.27-10.988s-11.31,5.031-11.31,10.988c0,5.876,4.428,10.948,11.31,10.948m0-4.307c-2.7,0-4.548-2.013-4.548-6.641,0-4.669,1.851-6.681,4.548-6.681,2.657,0,4.508,2.013,4.508,6.681,0,4.629-1.851,6.641-4.508,6.641M188.96-24.13h6.56l-.04-3.743v-4.91c.322-3.381,2.455-6.843,5.756-6.843a6.3,6.3,0,0,1,1.489.2v-5.836a5.128,5.128,0,0,0-.885-.081c-2.7,0-5.353,1.771-6.883,5.836h-.081v-5.233H188.96L189-41v13.121Z" transform="translate(0.085 52.909)" fill="#1c3554"/>
    </g>
    <g id="Group_4" data-name="Group 4" transform="translate(0 5.874)">
      <path id="Path_4" data-name="Path 4" d="M-6.218-2.5l-5.568,24.39L9.69,34.719,28.53,18.26l-9.831-23Z" transform="translate(11.786 4.745)" fill="#fddd00"/>
    </g>
    <g id="Group_5" data-name="Group 5" transform="translate(19.09 0)">
      <path id="Path_5" data-name="Path 5" d="M-.02-1.878-.038-3.56h5.85c2.486,0,5.063.734,5.063,3.184A3.089,3.089,0,0,1,8.191,2.612V2.7a3.266,3.266,0,0,1,3.059,3.22c0,2.54-2.308,3.309-4.651,3.309H-.038L-.02,7.549ZM3.057,1.7H5.472C6.849,1.7,7.8,1.217,7.8.089c0-1.056-.769-1.5-2.165-1.5H3.057Zm0,2.093V7.1H5.973c1.449,0,2.039-.608,2.039-1.574,0-1.342-1.145-1.735-2.522-1.735Z" transform="translate(0.038 3.56)" fill="#1c3554"/>
    </g>
    <g id="Group_6" data-name="Group 6" transform="translate(18.465 15.763)">
      <path id="Path_6" data-name="Path 6" d="M-13.426-14.664h-1.842l-.143-1.574h-.036a4.3,4.3,0,0,1-3.918,1.914c-3.417,0-6.083-2.254-6.083-6.637,0-4.186,2.577-6.834,6.369-6.834a5.331,5.331,0,0,1,5.528,3.864l-2.844.608a2.859,2.859,0,0,0-2.719-2.218c-1.646,0-3.041,1.342-3.041,4.526,0,3.274,1.557,4.454,3.095,4.454a2.7,2.7,0,0,0,2.791-2.791h-2.773v-2.057h5.635l-.017,1.682Z" transform="translate(25.448 27.795)" fill="#1c3554"/>
    </g>
    <path id="Path_8" data-name="Path 8" d="M74.573-638.484H72.247v-28.878h2.326Z" transform="translate(-38.116 667.368)" fill="#1c3554"/>
  </g>
</svg>
