<?xml version="1.0" encoding="utf-8"?>
<!-- Generator: Adobe Illustrator 24.2.1, SVG Export Plug-In . SVG Version: 6.00 Build 0)  -->
<svg version="1.1" id="Ebene_1" xmlns="http://www.w3.org/2000/svg" xmlns:xlink="http://www.w3.org/1999/xlink" x="0px" y="0px"
	 width="375px" height="70px" viewBox="0 0 375 70" style="enable-background:new 0 0 375 70;" xml:space="preserve">
<style type="text/css">
	.st0{fill:#86BC25;}
	.st1{fill:#5D686E;}
</style>
<g>
	<g>
		<g>
			<path class="st0" d="M57.43,45c-1.08-2.24-2.17-4.78-2.78-5.82c-1.7-2.92-4.26-7.57-9.03-10.09c-5.04-2.66-10.57-3.2-14.45-1.83
				c-3.61,1.28-4.25,1.89-5.78,3.52c-1,1.08-1.16,1.97-1.16,1.97s-4.72-0.17-7.69-8.92C13.4,14.55,18.61,5.03,26.8,0.84
				c0.6-0.3,1.97-0.74,2.28-0.76C29.81,0.02,30.54,0,31.28,0c17.25,0.02,31.21,14.03,31.19,31.29c-0.01,5.75-1.57,11.14-4.29,15.76
				L57.43,45z"/>
		</g>
		<g>
			<path class="st1" d="M26.24,0.4C16.1,3.99,9.83,12.69,9.82,22.74c-0.02,11.97,9.85,18.88,9.85,18.88
				c0.26,1.21,1.55,2.33,2.24,2.85c0.69,0.52,1.29,0.86,2.15,3.62c0.86,2.76,2.69,7.56,4.27,8.37c1.75,0.9,2.38-0.1,2.38-0.1
				s0.39,0.96,1.61,0.37c1.08-0.52,0.95-2.43,1.3-3.19c0.29-0.64,1.03-1.16,1.81-1.03c0.8,0.13,3.13,1.08,1.69,6.22l-0.71,3.33
				c-1.7,0.28-3.44,0.43-5.21,0.43C13.94,62.47-0.02,48.46,0,31.2C0.02,15.66,11.38,2.79,26.24,0.4z"/>
		</g>
	</g>
	<g>
		<path class="st0" d="M242.43,59.5c-0.62-0.88-1.85-1.65-3.31-1.65c-1.32,0-2.09,0.57-2.09,1.41c0,2.51,7.43,1.39,7.43,6.35
			c0,2.56-2.16,4.39-5.4,4.39c-2.89,0-4.59-1.15-5.51-2.54l1.96-1.83c0.88,1.17,2.12,1.76,3.59,1.76c1.54,0,2.4-0.62,2.4-1.63
			c0-2.73-7.43-1.5-7.43-6.42c0-2.4,2.14-4.1,5.16-4.1c2.31,0,4.14,1.01,5.09,2.38L242.43,59.5z"/>
		<path class="st0" d="M260.44,59.28c-0.84-0.73-1.96-1.28-3.37-1.28c-2.42,0-4.34,2.07-4.34,4.63c0,2.54,1.92,4.61,4.52,4.61
			c1.21,0,2.42-0.46,3.2-1.28l1.83,2.03c-1.26,1.37-2.95,2.01-5.22,2.01c-4.12,0-7.25-3.31-7.25-7.37c0-4.08,3.24-7.39,7.25-7.39
			c2.38,0,4.03,0.75,5.22,1.94L260.44,59.28z"/>
		<path class="st0" d="M268.19,55.55h2.76v14.14h-2.76V55.55z"/>
		<path class="st0" d="M278.06,55.55h9.15v2.58h-6.39v3.13h5.51v2.6h-5.51v3.22h6.39v2.6h-9.15V55.55z"/>
		<path class="st0" d="M296.2,60.12v9.57h-2.76V55.55h2.98l6.59,9.68v-9.68h2.76v14.14h-2.98L296.2,60.12z"/>
		<path class="st0" d="M318.39,58.13v11.56h-2.76V58.13h-4.19v-2.58h11.15v2.58H318.39z"/>
		<path class="st0" d="M328.32,55.55h2.76v14.14h-2.76V55.55z"/>
		<path class="st0" d="M338.2,55.55h8.95v2.6h-6.19v3.42h5.31v2.6h-5.31v5.51h-2.76V55.55z"/>
		<path class="st0" d="M353.38,55.55h2.76v14.14h-2.76V55.55z"/>
		<path class="st0" d="M373.17,59.28c-0.84-0.73-1.96-1.28-3.37-1.28c-2.42,0-4.34,2.07-4.34,4.63c0,2.54,1.92,4.61,4.52,4.61
			c1.21,0,2.42-0.46,3.2-1.28l1.83,2.03c-1.26,1.37-2.95,2.01-5.22,2.01c-4.12,0-7.25-3.31-7.25-7.37c0-4.08,3.24-7.39,7.25-7.39
			c2.38,0,4.03,0.75,5.22,1.94L373.17,59.28z"/>
	</g>
	<g>
		<path class="st1" d="M82.13,43.08c-2.67-2.55-4-6.48-4-11.81s1.33-9.27,4-11.82c2.67-2.55,6.67-3.83,12-3.83h4.81
			c3.26,0,6.15,0.85,8.66,2.55c2.51,1.7,3.76,4.02,3.76,6.97c0,0.85-0.25,1.46-0.75,1.82c-0.5,0.37-0.99,0.55-1.47,0.55h-2.57
			c-1.32,0-2.35-0.79-3.08-2.37c-1.06-2.27-2.83-3.41-5.31-3.41h-3.84c-3.15,0-5.28,0.68-6.4,2.03c-1.12,1.35-1.68,3.85-1.68,7.51
			c0,3.65,0.56,6.16,1.68,7.52s3.26,2.04,6.4,2.04h4.29c2.47,0,4.23-1.14,5.28-3.41c0.73-1.6,1.77-2.39,3.11-2.39h2.57
			c0.68,0,1.21,0.25,1.61,0.76c0.4,0.5,0.59,1.05,0.59,1.64c0,2.95-1.25,5.27-3.75,6.96c-2.5,1.69-5.38,2.53-8.65,2.53h-5.26
			C88.79,46.89,84.79,45.62,82.13,43.08z"/>
		<path class="st1" d="M113.43,44.74l5.41-20.54c1.47-5.59,6.24-8.4,14.32-8.41h11.62c0.53,0,0.97,0.2,1.33,0.6
			c0.35,0.4,0.53,0.87,0.53,1.4v26.95c0,0.56-0.2,1.03-0.6,1.41c-0.4,0.38-0.88,0.57-1.45,0.57h-4.05c-0.59,0-1.07-0.19-1.46-0.57
			c-0.38-0.38-0.57-0.87-0.57-1.46v-5.44h-15.33l-1.44,5.44c-0.14,0.59-0.47,1.08-0.97,1.46c-0.5,0.38-1.04,0.57-1.6,0.57h-4.25
			c-0.56,0-0.96-0.16-1.21-0.49s-0.36-0.61-0.36-0.85C113.36,45.14,113.39,44.92,113.43,44.74z M124.77,33.15h13.74V21.89h-6.15
			c-1.38,0-2.58,0.39-3.61,1.18c-1.03,0.78-1.72,1.84-2.08,3.16L124.77,33.15z"/>
		<path class="st1" d="M151.04,44.69V17.83c0-0.56,0.19-1.04,0.58-1.45c0.39-0.4,0.86-0.6,1.42-0.6h16.45
			c8.7,0,13.05,4.01,13.05,12.03c0,8.02-4.35,12.03-13.05,12.03h-10.33v4.85c0,0.56-0.2,1.04-0.59,1.43
			c-0.4,0.4-0.87,0.59-1.43,0.59h-4.05c-0.56,0-1.04-0.2-1.44-0.59C151.24,45.73,151.04,45.25,151.04,44.69z M159.17,33.73h7.87
			c2.42,0,4.25-0.41,5.5-1.22c1.25-0.81,1.88-2.38,1.88-4.7c0-2.32-0.63-3.89-1.88-4.7c-1.25-0.81-3.08-1.22-5.5-1.22h-7.87V33.73z"
			/>
		<path class="st1" d="M217.96,45.79c0,0.62-0.37,0.93-1.1,0.93h-5.18c-0.55,0-1.15-0.2-1.8-0.59c-0.65-0.4-1.15-0.87-1.5-1.43
			l-3.67-5.74c-1.51-2.36-3.34-3.54-5.48-3.54h-5.26v9.28c0,0.56-0.2,1.04-0.59,1.43c-0.4,0.4-0.87,0.59-1.43,0.59h-4.05
			c-0.56,0-1.04-0.2-1.44-0.59c-0.4-0.4-0.6-0.87-0.6-1.43V17.83c0-0.56,0.19-1.04,0.58-1.45c0.39-0.4,0.86-0.6,1.42-0.6h17.79
			c3.29,0,5.99,0.88,8.1,2.65c2.11,1.77,3.16,4.16,3.16,7.16c0,4.19-2.71,6.81-8.13,7.87c0.86,0.32,1.66,0.86,2.39,1.63
			c0.73,0.77,1.57,1.89,2.52,3.35l3.92,6.23C217.85,45.1,217.96,45.46,217.96,45.79z M193.98,29.31h9.19c1.48,0,2.79-0.29,3.91-0.88
			c1.13-0.59,1.69-1.53,1.69-2.83c0-1.29-0.56-2.24-1.69-2.83c-1.13-0.59-2.43-0.88-3.91-0.88h-9.19V29.31z"/>
		<path class="st1" d="M221.54,44.74v-26.9c0-0.56,0.2-1.04,0.6-1.45c0.4-0.4,0.88-0.6,1.44-0.6h4.01c0.59,0,1.08,0.2,1.48,0.6
			c0.4,0.4,0.59,0.88,0.59,1.45v26.86c0,0.56-0.21,1.04-0.61,1.43c-0.41,0.4-0.9,0.59-1.46,0.59h-4.01c-0.56,0-1.04-0.19-1.44-0.57
			C221.74,45.77,221.54,45.3,221.54,44.74z"/>
		<path class="st1" d="M237.21,43.08c-2.67-2.55-4-6.48-4-11.81s1.33-9.27,4-11.82c2.67-2.55,6.67-3.83,12-3.83h4.81
			c3.26,0,6.15,0.85,8.66,2.55c2.51,1.7,3.76,4.02,3.76,6.97c0,0.85-0.25,1.46-0.75,1.82c-0.5,0.37-0.99,0.55-1.47,0.55h-2.57
			c-1.32,0-2.35-0.79-3.08-2.37c-1.06-2.27-2.83-3.41-5.31-3.41h-3.84c-3.15,0-5.28,0.68-6.4,2.03c-1.12,1.35-1.68,3.85-1.68,7.51
			c0,3.65,0.56,6.16,1.68,7.52c1.12,1.36,3.26,2.04,6.4,2.04h4.29c2.47,0,4.23-1.14,5.28-3.41c0.73-1.6,1.77-2.39,3.11-2.39h2.57
			c0.68,0,1.21,0.25,1.61,0.76c0.4,0.5,0.59,1.05,0.59,1.64c0,2.95-1.25,5.27-3.75,6.96c-2.5,1.69-5.38,2.53-8.65,2.53h-5.26
			C243.88,46.89,239.87,45.62,237.21,43.08z"/>
		<path class="st1" d="M299.6,43.52c-2.94,2.58-7.25,3.87-12.94,3.87c-5.69,0-10-1.29-12.95-3.87c-2.95-2.58-4.42-6.67-4.42-12.26
			c0-5.59,1.47-9.68,4.42-12.25c2.95-2.57,7.26-3.86,12.95-3.86c5.69,0,10,1.29,12.94,3.86c2.94,2.57,4.41,6.66,4.41,12.25
			C304.01,36.85,302.53,40.94,299.6,43.52z M293.7,23.55c-1.45-1.73-3.8-2.59-7.04-2.59c-3.24,0-5.59,0.86-7.05,2.59
			c-1.46,1.73-2.19,4.3-2.19,7.71c0,3.42,0.73,5.98,2.19,7.7c1.46,1.72,3.81,2.58,7.05,2.58c3.24,0,5.59-0.86,7.04-2.58
			c1.45-1.72,2.18-4.29,2.18-7.7C295.88,27.85,295.15,25.28,293.7,23.55z"/>
		<path class="st1" d="M339.87,45.79c0,0.62-0.37,0.93-1.1,0.93h-5.18c-0.55,0-1.15-0.2-1.8-0.59c-0.65-0.4-1.15-0.87-1.5-1.43
			l-3.67-5.74c-1.51-2.36-3.34-3.54-5.48-3.54h-5.26v9.28c0,0.56-0.2,1.04-0.59,1.43c-0.4,0.4-0.87,0.59-1.43,0.59h-4.05
			c-0.56,0-1.04-0.2-1.44-0.59c-0.4-0.4-0.6-0.87-0.6-1.43V17.83c0-0.56,0.19-1.04,0.58-1.45c0.39-0.4,0.86-0.6,1.42-0.6h17.79
			c3.29,0,5.99,0.88,8.1,2.65c2.11,1.77,3.16,4.16,3.16,7.16c0,4.19-2.71,6.81-8.13,7.87c0.86,0.32,1.66,0.86,2.39,1.63
			c0.73,0.77,1.57,1.89,2.52,3.35l3.92,6.23C339.76,45.1,339.87,45.46,339.87,45.79z M315.89,29.31h9.19c1.48,0,2.79-0.29,3.91-0.88
			c1.13-0.59,1.69-1.53,1.69-2.83c0-1.29-0.56-2.24-1.69-2.83c-1.13-0.59-2.43-0.88-3.91-0.88h-9.19V29.31z"/>
		<path class="st1" d="M342.57,44.69V17.83c0-0.56,0.19-1.04,0.58-1.45c0.39-0.4,0.86-0.6,1.42-0.6h6.34c0.5,0,1.03,0.2,1.6,0.6
			c0.56,0.4,1.02,0.88,1.38,1.45l13.03,20.04V17.79c0-0.56,0.2-1.04,0.59-1.42c0.4-0.39,0.87-0.58,1.43-0.58h3.71
			c0.56,0,1.04,0.19,1.43,0.58c0.4,0.39,0.59,0.88,0.59,1.47v26.86c0,0.56-0.2,1.04-0.59,1.43c-0.4,0.4-0.87,0.59-1.43,0.59h-7.16
			c-0.56,0-1.14-0.2-1.73-0.59c-0.59-0.4-1.06-0.87-1.4-1.43l-11.93-18.51v18.51c0,0.56-0.2,1.04-0.59,1.43
			c-0.4,0.4-0.87,0.59-1.43,0.59h-3.8c-0.56,0-1.04-0.2-1.44-0.59C342.77,45.73,342.57,45.25,342.57,44.69z"/>
	</g>
</g>
</svg>
