<svg xmlns="http://www.w3.org/2000/svg" xmlns:xlink="http://www.w3.org/1999/xlink" width="750mm" height="124.35mm" viewBox="0 0 2125.98 352.5"><defs><radialGradient id="radial-gradient" cx="1391.37" cy="301.26" r="503.07" gradientUnits="userSpaceOnUse"><stop offset="0" stop-color="#e60037"/><stop offset="0.37" stop-color="#dc0e18"/><stop offset="0.62" stop-color="#9d0003"/></radialGradient><radialGradient id="radial-gradient-2" cx="1437.62" cy="134.2" r="273.28" xlink:href="#radial-gradient"/><radialGradient id="radial-gradient-3" cx="1313.12" cy="6.83" r="500.57" gradientUnits="userSpaceOnUse"><stop offset="0" stop-color="#e60037"/><stop offset="0.37" stop-color="#dc0e18"/><stop offset="0.62" stop-color="#9d0003"/></radialGradient><radialGradient id="radial-gradient-4" cx="1186.43" cy="-415.55" r="273.23" gradientTransform="translate(2098.14 869.33) rotate(-120)" xlink:href="#radial-gradient"/><radialGradient id="radial-gradient-5" cx="1097" cy="226.3" r="501.18" xlink:href="#radial-gradient"/><radialGradient id="radial-gradient-6" cx="1788.58" cy="-358.37" r="273.21" gradientTransform="translate(1802.07 -1382.84) rotate(120)" xlink:href="#radial-gradient"/></defs><title>자산 1</title><g style="isolation:isolate"><g id="레이어_2" data-name="레이어 2"><g id="레이어_1-2" data-name="레이어 1"><path d="M0,177.18v-.94C0,84,69,8.51,167.27,8.51c59.79,0,95.93,20.85,127,50.52l-36.61,42.16c-25.95-24.09-53.75-40.32-90.82-40.32-61.61,0-107,51-107,114.47v.91c0,63.49,44.94,114.93,107,114.93,39.86,0,65.34-15.77,93.13-41.71l36.61,37.09C262.75,321.78,225.65,344,165,344,70.43,344,0,270.33,0,177.18Z" style="fill:#777571"/><path d="M342.7,198.27V11.51h57V195.93c0,60.25,31,92.23,82,92.23,50.51,0,81.56-30.12,81.56-89.9V11.51h57v184c0,96.84-54.68,145.52-139.48,145.52C396.44,341,342.7,292.32,342.7,198.27Z" style="fill:#777571"/><path d="M675,14.06H802.4c40.78,0,72.75,12.06,93.62,32.44,17.15,17.61,26.87,41.71,26.87,70v.94c0,53.29-32,85.25-76.92,98.24l87.57,122.8H865.9L786.19,225.37H732V338.44H675ZM798.23,174.85c40.78,0,66.73-21.3,66.73-54.2v-.94C865,85,839.95,66,797.78,66H732V174.85Z" style="fill:#777571"/><path d="M988.26,14.06h57V338.44h-57Z" style="fill:#777571"/><path d="M1476.39,291.17l34.3-40.78c31,26.88,62.55,42.16,102.4,42.16,35.23,0,57.47-16.67,57.47-40.76v-.92c0-23.18-13-35.69-73.23-49.59-69-16.69-108-37.07-108-96.85v-.94c0-55.6,46.35-94.06,110.75-94.06,47.26,0,84.81,14.35,117.7,40.78l-30.58,43.1c-29.2-21.79-58.38-33.37-88-33.37-33.37,0-52.83,17.15-52.83,38.46v.92c0,25,14.81,36.16,77.37,51,68.57,16.69,103.8,41.25,103.8,95v.92c0,60.7-47.74,96.83-115.84,96.83C1562.12,343.06,1515.32,325.93,1476.39,291.17Z" style="fill:#777571"/><path d="M1774.35,14.06h57V338.44h-57Z" style="fill:#777571"/><path d="M1874.85,291.17l34.29-40.78c31,26.88,62.56,42.16,102.4,42.16,35.22,0,57.47-16.67,57.47-40.76v-.92c0-23.18-13-35.69-73.22-49.59-69-16.69-108-37.07-108-96.85v-.94c0-55.6,46.32-94.06,110.74-94.06,47.27,0,84.8,14.35,117.71,40.78l-30.59,43.1c-29.19-21.79-58.38-33.37-88-33.37-33.37,0-52.84,17.15-52.84,38.46v.92c0,25,14.83,36.16,77.39,51,68.58,16.69,103.79,41.25,103.79,95v.92c0,60.7-47.73,96.83-115.84,96.83C1960.56,343.06,1913.76,325.93,1874.85,291.17Z" style="fill:#777571"/><path d="M1443.06,173.57c-.09-5.48-.41-10.88-1-16l-.19-1.41c-.72-5.77-1.61-11.4-2.92-17.32-.34-1.72-.84-3.38-1.3-5.06l-.75-2.67a138.12,138.12,0,0,0-130.2-92.67c-76,0-137.88,61.83-137.88,137.93l.24-.44h0a97.73,97.73,0,0,1,158.36-76.36c56.31,40.69,73.9,118.78,38.56,180a136.8,136.8,0,0,1-22.69,29.22,138.43,138.43,0,0,1-96.4,39.37,172.66,172.66,0,0,1-21.17-1.47c-1.58-.25-3.1-.47-4.68-.74l1.47.4a12.69,12.69,0,0,0-1.56-.14l2.86.77c2.23.62,4.45,1.22,6.69,1.69l2.78.64c4,.78,7.9,1.33,11.81,1.83l3.2.4c1.16.12,2.39.2,3.58.27l4,.27c1.58.15,3.07.24,4.61.31l2.26.07v-.2l.88.2,3.27,0a180.62,180.62,0,0,0,32.33-3l2-.36c.83-.13,1.71-.28,2.55-.47,4.31-.92,8.63-2,13.11-3.32l1.77-.48c3.32-1.06,6.6-2.22,10.12-3.55,1.89-.68,3.74-1.39,5.59-2.15,2.71-1.13,5.41-2.31,8.09-3.59s5.52-2.73,8.25-4.23c0,0,3.28-1.77,4.29-2.35a179.31,179.31,0,0,0,18.25-12.06l1.31-1.06a179.52,179.52,0,0,0,16.54-14.33,178.64,178.64,0,0,0,14-15.76c.9-1.12,1.77-2.31,2.66-3.47a167.4,167.4,0,0,0,11.88-17.74,182.73,182.73,0,0,0,8.51-16.71,28,28,0,0,0,1-2.72l.76-2.08c1.75-4.15,3.42-8.34,4.78-12.59.33-1,.58-2,.89-3l.52-2c1.23-4.25,2.41-8.52,3.32-12.77.19-.91.29-1.79.45-2.64l.3-1.83c.95-5.27,1.61-9.61,2-13.77.1-.68.29-3.54.29-3.54.46-5.36.65-10.24.62-14.84Z" style="fill:url(#radial-gradient)"/><path d="M1426.2,110.32A125.21,125.21,0,0,1,1438,135h.05c-.1-.37-.2-.77-.31-1.16l-.75-2.67a138.12,138.12,0,0,0-130.2-92.67c-76,0-137.88,61.83-137.88,137.93l.24-.44a97.74,97.74,0,0,1,63.55-91.13c22.78-21.39,53.16-34.61,86-34.61a125.23,125.23,0,0,1,33.66,4.63A126.83,126.83,0,0,1,1426.2,110.32Z" style="opacity:0.2;mix-blend-mode:multiply;fill:url(#radial-gradient-2)"/><path d="M1437,131.24l-.74-2.86c-.56-2.25-1.17-4.49-1.83-6.7l-.89-2.71c-1.29-3.76-2.75-7.46-4.31-11.16l-1.24-2.94c-.51-1.1-1-2.18-1.56-3.23L1424.59,98c-.63-1.35-1.31-2.73-2-4.13l-1.1-1.93-.18.1-.23-.87a175.47,175.47,0,0,0-20.39-29.31l-1.29-1.51c-.54-.68-1.11-1.34-1.69-2-3-3.28-6.12-6.45-9.47-9.65l-1.29-1.29c-2.54-2.4-5.2-4.6-8.15-7.05-1.53-1.25-3-2.5-4.67-3.72-2.3-1.78-4.69-3.51-7.11-5.22s-5.15-3.39-7.81-5l-1.1-.7c-1-.64-2-1.29-3.07-1.9a184.85,184.85,0,0,0-19.55-9.7l-1.62-.64A158.67,158.67,0,0,0,1292.58,2c-1.4-.22-2.85-.37-4.31-.54A175.23,175.23,0,0,0,1266.74,0a177.25,177.25,0,0,0-18.56,1c-1,.11-1.95.29-2.84.45l-2.13.32c-4.5.64-9,1.25-13.31,2.19-1,.24-2,.51-3.1.78l-1.94.52c-4.28,1.06-8.58,2.18-12.73,3.53-.81.26-1.63.55-2.41.86l-1.82.7c-5.07,1.8-9.2,3.46-13,5.09-.61.32-3.14,1.56-3.14,1.56-4.92,2.34-9.25,4.54-13.24,6.86l-2.09,1.34c-4.72,2.81-9.25,5.8-13.36,8.82l-1.12.83c-4.65,3.49-9.12,7.11-13.6,11.18-1.28,1.14-2.45,2.44-3.71,3.71l-1.95,2a137.88,137.88,0,0,0-29.16,124.71A137.6,137.6,0,0,0,1247.17,279.8h0a137.63,137.63,0,0,0,68.68-18.44l-.76.12c.25-.12.5-.23.74-.36-.24.13-.48.24-.74.36l-.06,0a97.76,97.76,0,0,1-145.92-85.13,99.31,99.31,0,0,1,1-13.67c7-69.27,65.83-123.8,136.64-123.8a138.31,138.31,0,0,1,117.2,65.5,140.94,140.94,0,0,1,12.79,26.83c-.19-.65-.36-1.31-.54-1.95A20.16,20.16,0,0,1,1437,131.24Z" style="fill:url(#radial-gradient-3)"/><path d="M1130.13,71.43a127.85,127.85,0,0,1,15.47-22.5h0c-.29.26-.57.52-.87.84l-1.95,2a137.85,137.85,0,0,0-29.16,124.69,139.62,139.62,0,0,0,14,34.42c38,65.84,122.54,88.48,188.36,50.46l-.44-.05a97.73,97.73,0,0,1-110.71-9.42c-30-9-56.57-28.8-73-57.19A128.39,128.39,0,0,1,1119,163.2,126.82,126.82,0,0,1,1130.13,71.43Z" style="opacity:0.2;mix-blend-mode:multiply;fill:url(#radial-gradient-4)"/><path d="M1316,91.49l.21.39a1.05,1.05,0,0,0-.4-.21,1.55,1.55,0,0,1,.4.23l0,.09a97.62,97.62,0,0,1,0,168.73,3.35,3.35,0,0,1-.29.21H1316a94.2,94.2,0,0,1-13.11,6.37,137.42,137.42,0,0,1-176.67-191A132.61,132.61,0,0,1,1143,51.86c-.52.49-1,1-1.51,1.45a19.25,19.25,0,0,0,1.3-1.66l-2,2c-1.69,1.63-3.37,3.28-5,5L1134,60.77c-2.63,3-5.09,6.14-7.55,9.34l-1.87,2.53c-.74,1.06-1.44,2.11-2.1,3.17l-2.15,3.09c-.9,1.3-1.79,2.6-2.61,3.91l-1.2,1.93.19.13-.64.62a177.89,177.89,0,0,0-15.16,32.35l-.71,1.84c-.31.8-.59,1.65-.86,2.49-1.39,4.23-2.54,8.48-3.7,13.1l-.45,1.71c-.74,3.36-1.35,6.79-2,10.55-.35,2-.64,3.91-.9,5.9q-.61,4.37-.94,8.77c-.25,3.06-.42,6.16-.46,9.29l0,1.39c-.09,1.13-.1,2.33-.1,3.55a176.18,176.18,0,0,0,1.3,21.78l.24,1.71a179,179,0,0,0,4.17,21.46,176.78,176.78,0,0,0,6.67,20c.53,1.38,1.1,2.68,1.68,4.06a169,169,0,0,0,9.42,19.15,174.71,174.71,0,0,0,10.22,15.73c.62.79,1.22,1.56,1.88,2.33l1.31,1.61c2.77,3.58,5.55,7.13,8.51,10.43.73.78,1.46,1.54,2.22,2.28l1.44,1.44c3.06,3.2,6.17,6.35,9.45,9.29.64.55,3.42,2.85,3.42,2.85,4,3.42,7.59,6.25,10.92,8.66l2.94,2c4.47,3.14,8.57,5.7,12.58,8l2.16,1.19c4.87,2.71,9.64,5.11,14.32,7.13l1.33.57c5.37,2.29,10.72,4.32,16.44,6.15a51.29,51.29,0,0,0,5.15,1.41l2.59.67a139,139,0,0,0,25.84,2.41h0a139.05,139.05,0,0,0,96.77-39.51,136.55,136.55,0,0,0,22.74-29.31C1404.45,214,1381.85,129.51,1316,91.49Z" style="fill:url(#radial-gradient-5)"/><path d="M1244.45,347.28a125.58,125.58,0,0,1-27.16-2.11l0,0a9.85,9.85,0,0,0,1.18.32l2.66.69a138,138,0,0,0,122.61-37.1,136.27,136.27,0,0,0,22.74-29.31c38-65.89,15.37-150.36-50.47-188.35l.19.43a97.57,97.57,0,0,1,47.16,100.59c7.16,30.41,3.41,63.33-13,91.72a125,125,0,0,1-20.83,26.8A126.6,126.6,0,0,1,1244.45,347.28Z" style="opacity:0.2;mix-blend-mode:multiply;fill:url(#radial-gradient-6)"/></g></g></g></svg>