<?xml version="1.0" standalone="no"?>
<!DOCTYPE svg PUBLIC "-//W3C//DTD SVG 20010904//EN"
 "http://www.w3.org/TR/2001/REC-SVG-20010904/DTD/svg10.dtd">
<svg version="1.0" xmlns="http://www.w3.org/2000/svg"
 width="951.000000pt" height="238.000000pt" viewBox="0 0 951.000000 238.000000"
 preserveAspectRatio="xMidYMid meet">

<g transform="translate(0.000000,238.000000) scale(0.100000,-0.100000)"
fill="#000000" stroke="none">
<path d="M3985 2193 c-136 -33 -172 -194 -55 -250 129 -62 267 11 256 135 -5
58 -41 95 -107 110 -53 12 -61 13 -94 5z m4 -17 c-9 -10 -80 -56 -85 -56 -12
0 10 23 40 41 27 17 57 26 45 15z m56 -6 c-3 -5 -11 -10 -16 -10 -6 0 -7 5 -4
10 3 6 11 10 16 10 6 0 7 -4 4 -10z m55 -44 c0 -18 -2 -17 -15 8 -19 36 -19
42 0 26 8 -7 15 -22 15 -34z m-110 17 c-14 -10 -29 -17 -34 -15 -5 2 -6 -3 -3
-10 2 -7 -2 -19 -9 -26 -11 -10 -14 -10 -14 1 0 17 20 42 45 55 32 18 42 14
15 -5z m160 -5 c11 -12 20 -25 20 -29 0 -4 3 -16 6 -26 3 -10 -4 -1 -16 20
-12 22 -24 37 -26 34 -3 -3 0 -14 7 -25 10 -17 10 -23 -4 -37 -16 -15 -16 -14
-11 17 4 25 3 29 -5 18 -13 -18 -14 -1 -1 20 6 9 5 17 -3 22 -9 6 -9 8 0 8 7
0 21 -10 33 -22z m-89 2 c34 -19 23 -137 -15 -162 -23 -16 -56 -7 -73 18 -14
23 -15 32 -5 73 12 43 41 81 64 81 5 0 18 -5 29 -10z m-154 -52 c-3 -8 -6 -5
-6 6 -1 11 2 17 5 13 3 -3 4 -12 1 -19z m9 -45 c-10 -24 -30 -9 -33 25 l-3 32
21 -21 c11 -11 18 -27 15 -36z m191 15 c-3 -8 -6 -5 -6 6 -1 11 2 17 5 13 3
-3 4 -12 1 -19z m41 -15 c-15 -35 -28 -51 -28 -35 0 13 29 62 36 62 2 0 -2
-12 -8 -27z m26 -7 c-3 -9 -10 -16 -15 -16 -5 0 -4 9 3 20 14 22 21 20 12 -4z
m-74 -37 c-7 -13 -7 -19 0 -19 5 0 10 3 10 8 0 4 11 8 24 8 20 2 22 -1 13 -11
-7 -7 -15 -11 -19 -9 -4 2 -10 0 -13 -6 -4 -6 -15 -8 -26 -5 -13 4 -17 2 -14
-7 4 -9 -6 -13 -32 -14 -21 -1 -28 1 -16 3 25 5 63 47 63 70 0 8 5 11 10 8 7
-4 7 -13 0 -26z m-174 -5 c-23 -17 -36 -18 -36 -3 0 5 5 7 10 4 6 -3 10 -1 10
5 0 6 5 8 10 5 6 -3 10 -1 10 6 0 7 3 9 7 5 5 -4 -1 -14 -11 -22z m49 -43 c-3
-6 -11 -8 -17 -5 -6 4 -5 10 3 16 10 7 5 8 -16 4 -28 -6 -29 -6 -10 9 16 13
21 13 33 1 8 -8 11 -19 7 -25z"/>
<path d="M3590 2153 c-83 -27 -109 -86 -75 -170 29 -72 120 -108 209 -83 53
15 83 44 92 89 l7 32 -39 -6 c-34 -6 -72 -25 -51 -25 4 0 3 -9 -3 -19 -7 -15
-6 -23 6 -35 8 -9 10 -16 4 -16 -6 0 -13 7 -16 15 -4 10 -14 13 -30 9 -37 -9
-70 19 -89 75 -9 28 -13 56 -9 62 4 7 7 21 8 33 1 11 8 21 16 22 9 0 10 -1 3
-3 -7 -3 -13 -9 -13 -14 0 -6 8 -8 19 -4 12 3 29 -3 47 -18 28 -24 30 -24 68
-8 l39 17 -32 27 c-27 23 -42 27 -89 26 -31 0 -64 -3 -72 -6z m124 -18 c33
-14 49 -35 26 -35 -5 0 -10 4 -10 10 0 5 -16 12 -35 16 -19 3 -35 10 -35 15 0
13 12 11 54 -6z m-179 -45 c-3 -11 -2 -20 4 -20 5 0 12 8 15 18 4 10 14 19 22
19 14 0 14 -3 -2 -15 -13 -10 -15 -16 -6 -19 6 -3 12 -9 12 -15 0 -6 -6 -6
-15 2 -22 18 -18 6 10 -36 14 -20 25 -42 25 -48 0 -6 -10 5 -21 24 -12 19 -30
44 -40 56 -12 12 -17 28 -13 37 9 24 17 21 9 -3z m3 -71 c19 -30 8 -34 -12 -4
-9 14 -13 25 -9 25 5 0 14 -9 21 -21z m254 -61 c-7 -7 -12 -8 -12 -2 0 14 12
26 19 19 2 -3 -1 -11 -7 -17z m-202 -20 c0 -5 -11 -1 -25 8 -14 9 -25 18 -25
20 0 2 11 -2 25 -8 14 -6 25 -15 25 -20z m180 0 c0 -6 -7 -5 -15 2 -8 7 -15
17 -15 22 0 6 7 5 15 -2 8 -7 15 -17 15 -22z m-139 5 c13 -16 12 -17 -3 -4
-17 13 -22 21 -14 21 2 0 10 -8 17 -17z m-1 -29 c0 -2 -7 -4 -15 -4 -8 0 -15
4 -15 10 0 5 7 7 15 4 8 -4 15 -8 15 -10z m85 6 c4 -6 -7 -10 -27 -9 -27 0
-30 2 -13 9 27 12 33 12 40 0z"/>
<path d="M4272 2046 c-41 -52 -82 -103 -92 -114 -17 -18 -17 -19 12 -37 29
-17 30 -17 45 5 8 11 39 50 69 85 52 61 70 90 39 65 -8 -6 -20 -10 -27 -8 -7
3 -18 -2 -25 -11 -7 -9 -13 -11 -13 -5 0 16 48 69 56 61 4 -4 2 -7 -4 -7 -7 0
-12 -7 -12 -15 0 -18 12 -19 27 -4 27 27 20 -17 -16 -108 -36 -89 -38 -99 -23
-110 29 -23 36 -20 170 83 19 15 31 32 28 40 -3 7 0 16 6 20 6 4 8 3 4 -4 -3
-6 2 -15 11 -21 16 -9 15 -13 -18 -48 -19 -21 -50 -57 -68 -80 l-32 -42 30
-16 c17 -8 35 -15 41 -15 9 0 180 208 180 220 0 10 -102 51 -115 47 -7 -3 -41
-27 -74 -52 -34 -26 -64 -45 -67 -43 -2 3 9 38 26 78 17 40 29 74 28 75 -3 1
-21 10 -108 52 -3 1 -38 -40 -78 -91z m122 35 c-7 -8 -53 22 -48 31 3 4 16 0
29 -9 13 -10 21 -20 19 -22z m34 -29 c2 -7 -2 -10 -12 -6 -9 3 -16 11 -16 16
0 13 23 5 28 -10z m-42 -36 c0 -14 -5 -21 -9 -17 -4 4 -5 15 -1 24 9 24 12 21
10 -7z m-125 -35 c-7 -5 -11 -14 -7 -20 4 -6 -2 -21 -13 -33 -12 -12 -21 -17
-21 -10 0 6 5 14 10 17 6 3 10 11 10 17 0 6 -10 3 -22 -8 l-23 -19 20 25 c24
30 36 40 50 40 6 0 4 -4 -4 -9z m94 -29 c-15 -16 -16 -15 -4 12 7 15 15 23 17
16 3 -7 -3 -19 -13 -28z m212 32 c-3 -3 -12 -4 -19 -1 -8 3 -5 6 6 6 11 1 17
-2 13 -5z m67 -3 c3 -5 -2 -19 -12 -31 l-19 -23 0 31 c0 30 19 44 31 23z
m-254 -46 c-10 -12 -10 -15 0 -15 8 0 11 -3 7 -6 -14 -14 -27 7 -16 27 6 12
13 18 16 15 3 -3 0 -12 -7 -21z m89 6 c-13 -11 -26 -17 -29 -14 -6 6 30 33 43
33 5 0 -1 -9 -14 -19z m91 -31 c24 -24 27 -38 3 -19 -15 12 -16 12 -10 -5 5
-13 1 -25 -12 -37 -10 -10 -21 -24 -24 -31 -4 -11 -7 -10 -15 1 -7 10 -11 10
-17 1 -4 -7 -1 -16 6 -21 11 -7 10 -9 -4 -9 -12 0 -16 -5 -11 -12 5 -10 4 -10
-5 -2 -19 17 7 66 31 58 10 -3 18 -1 18 5 0 5 -9 13 -21 16 -11 4 -18 9 -16
12 3 2 14 0 24 -5 26 -14 56 3 33 18 -12 8 -13 11 -1 19 8 5 9 11 3 15 -6 3
-13 -3 -17 -14 -3 -11 -11 -20 -16 -20 -5 0 -2 11 7 25 20 30 19 30 44 5z
m-162 -16 c-25 -25 -27 -26 -43 -10 -10 9 -14 20 -11 24 4 3 11 0 16 -8 7 -11
12 -11 32 3 34 24 36 20 6 -9z m-47 -31 c12 -15 12 -16 -4 -10 -10 4 -23 7
-28 7 -6 0 -7 5 -4 10 9 15 21 12 36 -7z m100 -60 c-8 -15 -10 -15 -11 -2 0
17 10 32 18 25 2 -3 -1 -13 -7 -23z"/>
<path d="M3255 2015 c-52 -18 -95 -66 -95 -106 0 -106 126 -182 240 -144 100
33 131 119 68 191 -59 67 -133 87 -213 59z m-3 -43 c-13 -8 -22 -25 -23 -41 0
-23 -1 -24 -8 -6 -5 11 -6 25 -3 30 2 6 -3 2 -13 -7 -17 -16 -17 -18 -1 -43
10 -15 15 -29 13 -32 -3 -2 -11 5 -17 17 -6 12 -14 20 -16 17 -3 -3 3 -21 14
-41 19 -36 32 -38 32 -4 0 10 4 18 9 18 6 0 6 -12 0 -30 -6 -16 -14 -30 -17
-30 -12 0 -38 20 -27 20 6 0 4 4 -3 8 -7 5 -15 24 -18 44 -5 28 -1 40 20 64
14 16 26 23 26 15 0 -11 3 -11 15 -1 8 7 12 16 9 21 -3 5 3 6 12 2 16 -6 15
-8 -4 -21z m102 8 c-6 -6 -19 -7 -30 -3 -17 6 -17 8 6 13 29 8 38 4 24 -10z
m36 11 c0 -5 8 -12 18 -14 14 -4 14 -5 1 -6 -9 0 -22 6 -29 14 -9 10 -9 15 -1
15 6 0 11 -4 11 -9z m-28 -61 c22 -22 43 -38 47 -35 11 6 0 -58 -11 -72 -6 -7
-20 -13 -32 -13 -27 0 -92 53 -112 92 -14 27 -14 31 2 49 27 30 62 24 106 -21z
m94 13 c-3 -4 -17 -8 -29 -10 -17 -2 -19 -1 -7 7 17 11 47 14 36 3z m12 -43
c1 -26 -1 -28 -14 -16 -16 16 -19 40 -4 31 6 -3 10 -1 10 4 0 26 7 8 8 -19z
m12 -50 c0 -5 -4 -10 -10 -10 -5 0 -6 -8 -3 -17 6 -16 5 -17 -12 -3 -17 14
-18 13 -12 -4 7 -16 5 -17 -9 -5 -15 12 -14 14 5 23 12 5 21 13 21 18 0 4 5 8
10 8 6 0 10 -4 10 -10z m-138 -58 c-7 -2 -10 -8 -6 -13 3 -5 1 -9 -5 -9 -5 0
-13 5 -16 11 -4 6 -14 8 -22 5 -8 -3 -11 -1 -8 5 4 5 16 7 27 3 14 -4 18 -2
14 5 -5 7 -1 8 10 4 11 -4 13 -8 6 -11z m68 3 c-7 -8 -17 -15 -22 -15 -6 0 -5
7 2 15 7 8 17 15 22 15 6 0 5 -7 -2 -15z"/>
<path d="M4985 1933 c-16 -2 -34 -9 -40 -14 -7 -7 -1 -8 18 -4 25 7 27 5 27
-22 0 -16 5 -34 12 -41 9 -9 7 -12 -11 -12 -17 0 -22 -4 -17 -16 3 -8 1 -24
-4 -35 -12 -22 1 -26 22 -6 26 24 186 109 228 121 l25 7 -25 11 c-27 11 -187
19 -235 11z"/>
<path d="M5338 1926 c-37 -6 -70 -14 -73 -17 -3 -4 16 -14 42 -24 52 -19 178
-89 232 -129 40 -30 58 -25 21 5 -14 11 -19 18 -11 17 11 -2 14 7 12 40 -3 52
11 72 53 72 l31 1 -32 14 c-29 12 -167 36 -196 34 -7 0 -42 -6 -79 -13z"/>
<path d="M7334 1930 c-18 -6 -44 -16 -58 -24 -25 -13 -25 -14 -6 -19 11 -3 18
-1 14 4 -3 5 6 9 20 9 13 0 26 -5 28 -12 2 -6 19 -13 37 -14 20 -1 38 -10 48
-23 8 -12 18 -19 23 -16 4 3 11 -3 14 -12 5 -11 -7 -31 -36 -62 -46 -48 -28
-39 35 19 21 19 59 49 84 67 l45 32 57 -38 c31 -21 65 -49 76 -61 11 -12 28
-26 37 -31 14 -8 16 -6 11 8 -5 12 -2 15 10 10 10 -4 17 -2 17 4 0 7 -10 9
-25 5 -31 -8 -33 10 -2 19 57 18 118 49 114 59 -7 19 60 11 83 -9 11 -10 20
-13 20 -7 0 16 -104 78 -156 92 -39 11 -59 10 -141 -5 -84 -16 -104 -17 -152
-6 -77 18 -160 22 -197 11z"/>
<path d="M1640 1921 l-55 -6 74 -8 c116 -13 348 -99 456 -169 114 -75 168
-108 171 -105 2 1 -31 30 -74 62 -42 33 -94 77 -115 98 -21 20 -45 37 -53 37
-9 0 -12 4 -9 10 3 5 -6 12 -20 16 -14 3 -24 9 -21 11 7 8 -15 26 -47 41 -33
14 -228 23 -307 13z"/>
<path d="M3819 1904 l-24 -26 25 7 c55 17 71 25 65 35 -11 18 -41 11 -66 -16z"/>
<path d="M4060 1880 c0 -5 5 -10 11 -10 16 0 191 -89 226 -116 17 -13 36 -24
41 -24 5 0 15 -7 22 -16 8 -8 23 -20 34 -26 12 -6 0 9 -26 34 -26 25 -44 48
-41 52 6 6 -14 9 -20 4 -2 -3 -22 12 -55 43 -9 8 -38 23 -64 33 -26 10 -50 22
-53 27 -8 12 -75 12 -75 -1z"/>
<path d="M3005 1854 l-30 -25 25 -20 c14 -11 47 -39 74 -62 88 -74 131 -107
141 -107 6 1 22 11 37 23 l28 23 -110 92 c-60 51 -115 94 -122 97 -7 2 -26 -7
-43 -21z m45 -4 c-12 -8 -13 -13 -2 -30 7 -12 8 -20 2 -20 -5 0 -10 5 -10 11
0 6 -7 9 -15 6 -8 -4 -17 -2 -20 3 -4 6 1 10 10 10 9 0 14 4 11 9 -6 9 8 19
29 20 6 0 3 -4 -5 -9z m30 -20 c0 -5 -4 -10 -10 -10 -5 0 -10 5 -10 10 0 6 5
10 10 10 6 0 10 -4 10 -10z m13 -22 c-11 -16 -11 -28 2 -48 8 -13 7 -13 -8 -1
-20 16 -22 32 -5 49 16 16 23 15 11 0z m37 -30 c0 -5 -5 -8 -11 -8 -5 0 -7 5
-4 10 3 6 1 10 -5 10 -6 0 -8 5 -4 11 6 11 23 -6 24 -23z m61 -35 c13 -16 12
-17 -3 -4 -17 13 -22 21 -14 21 2 0 10 -8 17 -17z m-6 -31 c-6 -7 -35 18 -35
31 0 5 9 2 20 -8 11 -10 18 -20 15 -23z m15 -45 c0 -11 -68 45 -69 56 -1 4 15
-5 34 -20 19 -15 35 -32 35 -36z m33 18 c-3 -9 -8 -14 -10 -11 -3 3 -2 9 2 15
9 16 15 13 8 -4z"/>
<path d="M3667 1846 c-31 -7 -60 -10 -63 -7 -3 3 -4 1 -2 -6 2 -7 -17 -32 -41
-57 -50 -53 -47 -58 12 -17 23 15 70 43 105 60 86 44 85 47 -11 27z"/>
<path d="M2885 1751 c-11 -5 -42 -28 -68 -51 -46 -41 -47 -43 -32 -66 17 -26
11 -32 -10 -10 -8 7 -11 17 -7 21 4 4 0 6 -8 3 -8 -3 -15 -10 -15 -16 0 -10
232 -182 245 -182 3 0 38 30 78 66 79 72 91 104 52 139 -22 20 -72 25 -104 10
-16 -7 -18 -5 -12 22 6 26 3 34 -20 52 -28 22 -64 26 -99 12z m10 -21 c-3 -5
-11 -10 -16 -10 -6 0 -7 5 -4 10 3 6 11 10 16 10 6 0 7 -4 4 -10z m61 1 c-3
-5 -15 -7 -26 -4 -28 7 -25 13 6 13 14 0 23 -4 20 -9z m20 -17 c-5 -12 -2 -15
10 -10 15 6 15 4 3 -10 -8 -10 -15 -12 -17 -5 -2 6 -8 11 -13 11 -4 0 -6 -6
-4 -13 5 -11 -46 -77 -60 -77 -3 0 -17 7 -31 16 l-25 17 22 23 c28 30 13 31
-18 2 -22 -21 -24 -21 -17 -3 7 18 6 18 -9 6 -11 -8 -17 -9 -17 -2 0 6 12 14
28 17 15 4 33 11 40 17 8 6 12 6 12 -3 0 -7 6 -10 14 -7 7 3 24 -2 36 -10 18
-13 22 -13 18 -2 -2 8 -15 20 -29 26 -15 8 -18 13 -8 13 8 0 20 -5 25 -10 8
-8 15 -6 24 5 16 20 24 19 16 -1z m22 -60 c15 -15 14 -16 -6 -10 -17 6 -21 4
-16 -7 3 -8 -2 -17 -12 -21 -14 -5 -15 -4 -4 9 9 11 9 15 1 15 -8 0 -8 4 1 15
16 18 16 18 36 -1z m72 -9 c-7 -9 -15 -13 -19 -10 -3 3 1 10 9 15 21 14 24 12
10 -5z m46 -13 c1 -7 0 -8 -3 -2 -2 5 -9 10 -14 10 -6 0 -8 -4 -5 -9 4 -5 0
-12 -6 -14 -10 -4 -9 -8 2 -16 8 -6 10 -11 5 -11 -6 0 -16 5 -23 12 -9 9 -8
16 5 30 18 20 35 20 39 0z m-269 -30 c-13 -3 -16 -9 -12 -20 5 -13 4 -14 -6
-5 -15 15 7 47 25 36 7 -5 5 -9 -7 -11z m88 9 c-11 -19 16 -22 41 -6 59 38
103 -13 46 -54 l-30 -21 -26 25 c-15 14 -31 23 -36 20 -15 -9 -22 15 -10 30
14 17 24 20 15 6z m-60 -42 c-4 -5 -12 -9 -18 -8 -9 0 -8 2 1 6 6 2 9 10 6 15
-4 7 -2 8 5 4 6 -4 9 -12 6 -17z m95 -44 c7 -8 16 -12 21 -9 5 3 9 0 9 -7 0
-6 -8 -9 -20 -6 -23 6 -27 -8 -5 -17 8 -3 15 -10 15 -16 0 -5 -24 9 -53 32
-30 24 -53 44 -51 46 4 5 48 -20 55 -31 4 -5 9 -5 12 0 3 5 -10 17 -29 28 -19
10 -34 22 -34 26 0 10 64 -27 80 -46z m130 41 c0 -3 -4 -8 -10 -11 -5 -3 -10
-1 -10 4 0 6 5 11 10 11 6 0 10 -2 10 -4z m-33 -28 c-3 -8 -6 -5 -6 6 -1 11 2
17 5 13 3 -3 4 -12 1 -19z m-22 -8 c3 -5 1 -10 -4 -10 -6 0 -11 5 -11 10 0 6
2 10 4 10 3 0 8 -4 11 -10z"/>
<path d="M4904 1729 c-19 -22 -19 -22 4 -8 12 8 22 17 22 21 0 12 -6 9 -26
-13z"/>
<path d="M4789 1623 c-13 -16 -12 -17 4 -4 16 13 21 21 13 21 -2 0 -10 -8 -17
-17z"/>
<path d="M5005 1503 c-88 -30 -162 -57 -164 -59 -8 -8 45 -43 57 -39 44 16 59
13 91 -15 l35 -30 -22 -23 -22 -23 34 -33 34 -33 74 93 c41 52 84 107 96 123
l23 29 -33 34 c-17 18 -34 33 -37 32 -4 0 -78 -25 -166 -56z m115 -31 c0 -5
-13 -21 -30 -37 -24 -23 -32 -26 -45 -15 -22 19 -19 28 18 44 37 17 57 19 57
8z"/>
<path d="M5311 1373 c-18 -12 -28 -13 -41 -6 -12 8 -22 6 -41 -8 -13 -10 -18
-19 -11 -19 27 0 8 -28 -53 -75 l-64 -49 21 -23 c12 -13 28 -23 35 -23 7 0 43
23 78 51 64 50 66 51 90 35 22 -15 28 -15 45 -3 20 14 20 14 0 32 -11 10 -20
21 -20 25 0 18 30 18 52 0 20 -15 27 -16 41 -5 25 18 21 32 -20 60 -44 29 -79
32 -112 8z"/>
<path d="M5342 1152 c-92 -85 -89 -74 -25 -115 7 -4 31 10 63 38 51 45 85 56
108 33 10 -10 18 -6 39 15 32 32 27 40 -27 40 -33 0 -38 2 -29 13 9 11 6 18
-12 34 -13 10 -26 19 -29 19 -3 0 -42 -34 -88 -77z"/>
<path d="M6435 1199 c-11 -17 1 -21 15 -4 8 9 8 15 2 15 -6 0 -14 -5 -17 -11z"/>
<path d="M5637 1152 c-24 -26 -22 -31 19 -48 33 -14 38 -14 55 2 26 23 24 28
-16 47 -43 21 -38 21 -58 -1z"/>
<path d="M3790 1049 c-66 -61 -164 -131 -229 -163 l-47 -24 -53 28 c-28 16
-73 44 -99 62 -67 48 -80 55 -55 27 l23 -25 -41 -34 c-23 -19 -47 -41 -55 -48
-17 -17 -66 -8 -112 20 -18 11 -35 18 -38 15 -3 -3 30 -22 73 -44 77 -37 79
-38 178 -35 110 3 177 3 353 0 103 -2 122 0 162 20 34 16 40 22 22 22 -14 0
-21 4 -17 11 4 6 1 10 -6 8 -27 -3 -38 1 -70 30 -17 16 -28 34 -25 40 5 7 1 9
-8 5 -30 -11 -16 11 46 73 75 76 74 81 -2 12z"/>
<path d="M5531 1018 l-63 -81 23 -18 c45 -34 53 -30 122 60 l66 86 -37 17
c-20 9 -39 17 -42 17 -3 1 -34 -36 -69 -81z"/>
<path d="M6145 1093 c-74 -16 -135 -56 -135 -88 0 -20 81 2 98 26 8 12 23 19
35 17 38 -6 28 -25 -27 -53 -59 -30 -83 -64 -66 -95 22 -41 120 -38 156 4 15
17 25 21 32 14 10 -10 68 -2 76 11 3 4 -11 39 -31 78 -43 85 -69 102 -138 86z
m58 -123 c6 -24 -19 -52 -42 -48 -23 5 -26 39 -5 55 25 18 41 16 47 -7z"/>
<path d="M7615 1024 c-121 -78 -365 -184 -423 -184 -12 0 -13 -3 -5 -11 13
-13 290 -7 333 7 l25 8 -30 6 -30 6 33 19 c17 11 32 22 32 26 0 3 23 29 50 57
28 28 50 56 50 61 0 6 9 11 19 11 16 0 31 18 31 36 0 10 -19 0 -85 -42z"/>
<path d="M2375 1014 c-27 -24 -74 -63 -102 -86 -63 -48 -79 -47 -145 12 -52
45 -74 53 -37 13 18 -19 19 -25 7 -20 -10 3 -20 2 -24 -4 -4 -6 -11 -6 -20 2
-10 8 -14 8 -14 0 0 -6 -11 -11 -25 -11 -14 0 -36 -6 -48 -14 -12 -8 -31 -16
-42 -18 -11 -2 -23 -7 -27 -12 -3 -5 -24 3 -45 19 -31 23 -34 24 -18 6 27 -31
97 -71 143 -82 25 -6 61 -4 116 7 83 17 127 16 241 -6 63 -12 76 -11 127 4 63
20 124 54 114 63 -4 4 -12 1 -18 -5 -15 -15 -32 -16 -23 -2 3 6 -1 10 -10 10
-9 0 -43 13 -76 30 -33 16 -65 28 -72 26 -6 -1 -9 -1 -4 1 4 3 7 12 7 21 0 14
-2 15 -10 2 -5 -8 -12 -11 -16 -7 -4 4 12 28 36 52 57 58 49 57 -15 -1z"/>
<path d="M5787 1040 c-39 -12 -58 -29 -74 -68 -12 -29 -11 -37 3 -68 21 -45
59 -64 128 -64 44 0 60 5 85 26 17 14 31 29 31 34 0 15 -74 18 -83 3 -14 -22
-56 -16 -68 11 -24 52 27 112 61 71 13 -15 75 -21 84 -7 8 13 -20 41 -57 57
-40 16 -67 18 -110 5z"/>
<path d="M5447 1029 c7 -7 15 -10 18 -7 3 3 -2 9 -12 12 -14 6 -15 5 -6 -5z"/>
<path d="M6684 1023 c16 -8 39 -24 50 -34 11 -11 23 -19 28 -19 4 0 7 -6 6
-12 -2 -7 5 -12 14 -12 10 1 16 -2 15 -6 -1 -4 10 -19 26 -33 15 -14 27 -30
27 -36 0 -5 7 -17 16 -25 12 -12 36 -16 102 -15 91 1 216 15 156 18 -74 3
-241 68 -375 147 -42 24 -80 44 -85 44 -5 -1 4 -8 20 -17z"/>
<path d="M2060 950 c0 -5 5 -10 11 -10 5 0 7 5 4 10 -3 6 -8 10 -11 10 -2 0
-4 -4 -4 -10z"/>
<path d="M5602 885 c-18 -29 -27 -35 -54 -35 -25 -1 -29 -3 -17 -10 21 -12
179 -25 179 -15 0 5 -7 17 -17 27 -9 10 -21 28 -27 40 -18 36 -41 33 -64 -7z"/>
<path d="M5972 847 c-12 -13 -19 -27 -15 -30 10 -10 86 -8 103 3 13 8 13 10
-1 10 -9 0 -24 9 -34 20 -23 25 -27 25 -53 -3z"/>
<path d="M2664 576 c-64 -29 -84 -102 -41 -151 12 -15 47 -39 77 -53 43 -21
56 -33 58 -53 4 -36 -18 -51 -75 -47 -39 2 -50 7 -58 26 -7 15 -18 22 -37 22
-23 0 -28 -4 -28 -25 0 -53 83 -93 163 -79 56 9 107 59 107 106 0 48 -23 75
-95 109 -66 31 -87 58 -65 84 26 31 120 10 120 -26 0 -15 50 -10 56 6 7 18
-18 60 -46 75 -34 18 -103 21 -136 6z"/>
<path d="M4088 580 c-75 -22 -126 -92 -135 -186 -7 -64 16 -135 51 -157 66
-43 154 -28 212 35 l38 42 -34 7 c-29 6 -37 3 -61 -22 -20 -21 -36 -29 -62
-29 -49 0 -77 36 -77 100 0 91 50 160 116 160 32 0 41 -5 67 -42 8 -12 20 -15
40 -11 23 4 26 9 21 27 -20 65 -99 99 -176 76z"/>
<path d="M5868 580 c-10 -6 -23 -31 -29 -55 -7 -28 -17 -45 -30 -48 -23 -6
-26 -47 -4 -47 18 0 18 4 0 -100 -19 -110 -19 -110 9 -110 20 0 24 6 30 43 24
156 27 166 49 169 31 4 37 48 7 48 -18 0 -21 4 -16 23 3 12 6 25 6 30 0 4 11
7 24 7 20 0 44 26 33 36 -10 11 -64 13 -79 4z"/>
<path d="M6844 576 c-64 -29 -84 -102 -41 -151 12 -15 47 -39 77 -53 43 -21
56 -33 58 -53 4 -36 -18 -51 -75 -47 -39 2 -50 7 -58 26 -7 15 -18 22 -37 22
-23 0 -28 -4 -28 -25 0 -53 83 -93 163 -79 56 9 107 59 107 106 0 48 -23 75
-95 109 -66 31 -87 58 -65 84 26 31 120 10 120 -26 0 -15 50 -10 56 6 7 18
-18 60 -46 75 -34 18 -103 21 -136 6z"/>
<path d="M8268 580 c-75 -22 -126 -92 -135 -186 -7 -64 16 -135 51 -157 66
-43 154 -28 212 35 l38 42 -34 7 c-29 6 -37 3 -61 -22 -20 -21 -36 -29 -62
-29 -49 0 -77 36 -77 100 0 91 50 160 116 160 32 0 41 -5 67 -42 8 -12 20 -15
40 -11 23 4 26 9 21 27 -20 65 -99 99 -176 76z"/>
<path d="M186 557 c-21 -21 -26 -36 -26 -77 0 -49 1 -50 30 -50 28 0 30 3 30
35 0 24 -5 35 -15 35 -21 0 -19 26 4 42 13 9 17 19 11 27 -6 11 -14 8 -34 -12z"/>
<path d="M460 566 c0 -8 -3 -21 -6 -30 -5 -13 2 -16 41 -16 46 0 46 -1 41 -27
-3 -16 -12 -71 -21 -123 -9 -52 -18 -107 -21 -122 -5 -25 -3 -28 20 -28 14 0
26 1 26 3 0 1 11 65 25 141 14 77 25 144 25 148 0 4 20 8 44 8 41 0 44 2 48
30 l5 30 -114 0 c-91 0 -113 -3 -113 -14z"/>
<path d="M920 577 c0 -1 -13 -79 -30 -172 -16 -94 -30 -173 -30 -177 0 -5 11
-8 25 -8 21 0 26 6 31 39 4 22 17 49 29 61 l23 21 14 -58 c12 -52 17 -58 42
-61 25 -3 27 -1 21 18 -4 12 -15 50 -25 84 l-17 61 40 45 39 45 -28 3 c-29 4
-47 -11 -88 -69 -8 -13 -18 -21 -21 -18 -2 3 2 43 10 90 19 106 19 99 -10 99
-14 0 -25 -1 -25 -3z"/>
<path d="M1146 558 c-9 -35 -8 -38 18 -38 23 0 36 16 36 46 0 24 -47 17 -54
-8z"/>
<path d="M2006 553 c-3 -16 -15 -84 -26 -153 -11 -69 -22 -137 -25 -152 -4
-24 -1 -28 20 -28 26 0 30 9 41 85 12 89 37 134 75 135 26 0 29 -24 14 -112
-19 -108 -19 -108 10 -108 14 0 25 3 25 6 0 4 7 49 16 101 9 51 13 105 10 119
-10 37 -47 50 -87 30 -40 -20 -41 -20 -35 2 2 9 8 36 11 60 6 40 6 42 -18 42
-20 0 -27 -6 -31 -27z"/>
<path d="M2950 574 c0 -8 -69 -314 -76 -336 -5 -17 6 -18 135 -18 115 0 141 3
141 14 0 8 3 21 6 30 5 14 -7 16 -100 16 -58 0 -106 3 -106 6 0 3 5 25 11 50
l11 44 93 0 c88 0 93 1 99 23 3 12 6 25 6 30 0 4 -41 7 -91 7 l-91 0 6 31 c3
17 6 35 6 40 0 5 44 10 97 11 96 3 97 3 104 31 l7 27 -129 0 c-71 0 -129 -3
-129 -6z"/>
<path d="M3342 513 c-110 -191 -162 -282 -162 -287 0 -4 15 -6 33 -6 28 0 37
6 56 40 l22 40 73 0 73 0 7 -40 c6 -36 9 -40 36 -40 36 0 36 -10 2 195 l-28
160 -36 3 c-35 3 -38 1 -76 -65z m81 -115 l6 -38 -50 0 c-27 0 -49 3 -49 7 0
3 17 36 37 72 l37 66 7 -35 c4 -19 9 -52 12 -72z"/>
<path d="M3640 576 c0 -5 -26 -123 -69 -318 -9 -38 -9 -38 24 -38 34 0 34 0
50 75 l17 75 40 0 c39 0 39 0 74 -75 33 -72 36 -75 69 -75 l35 0 -15 38 c-9
20 -27 56 -41 80 -24 41 -24 42 -5 42 12 0 35 13 53 28 27 25 31 36 31 76 0
77 -20 90 -153 94 -61 3 -110 1 -110 -2z m194 -72 c9 -25 7 -33 -14 -54 -16
-16 -33 -20 -81 -20 l-61 0 6 31 c3 17 6 38 6 45 0 22 136 20 144 -2z"/>
<path d="M4326 413 c-20 -93 -36 -174 -36 -180 0 -17 56 -17 62 -1 3 7 11 43
18 81 l14 67 73 0 73 0 -6 -27 c-3 -16 -10 -44 -15 -63 -15 -60 -12 -70 21
-70 34 0 32 -5 75 200 14 69 29 133 31 143 4 14 -1 17 -29 17 -34 0 -34 0 -48
-67 l-14 -68 -72 -3 c-40 -2 -73 1 -73 5 1 10 19 92 26 116 4 14 -1 17 -29 17
l-34 0 -37 -167z"/>
<path d="M6110 576 c0 -5 -26 -123 -69 -318 -9 -38 -9 -38 24 -38 34 0 34 0
50 75 l17 75 40 0 c39 0 39 0 74 -75 33 -72 36 -75 69 -75 l35 0 -15 38 c-9
20 -27 56 -41 80 -24 41 -24 42 -5 42 12 0 35 13 53 28 27 25 31 36 31 76 0
77 -20 90 -153 94 -61 3 -110 1 -110 -2z m194 -72 c9 -25 7 -33 -14 -54 -16
-16 -33 -20 -81 -20 l-61 0 6 31 c3 17 6 38 6 45 0 22 136 20 144 -2z"/>
<path d="M6470 574 c0 -8 -69 -314 -76 -336 -5 -17 6 -18 135 -18 115 0 141 3
141 14 0 8 3 21 6 30 5 14 -7 16 -100 16 -58 0 -106 3 -106 6 0 3 5 25 11 50
l11 44 93 0 c88 0 93 1 99 23 3 12 6 25 6 30 0 4 -41 7 -91 7 l-91 0 6 31 c3
17 6 35 6 40 0 5 44 10 97 11 96 3 97 3 104 31 l7 27 -129 0 c-71 0 -129 -3
-129 -6z"/>
<path d="M7130 574 c0 -8 -69 -314 -76 -336 -5 -17 6 -18 135 -18 115 0 141 3
141 14 0 8 3 21 6 30 5 14 -7 16 -100 16 -58 0 -106 3 -106 6 0 3 5 25 11 50
l11 44 93 0 c88 0 93 1 99 23 3 12 6 25 6 30 0 4 -41 7 -91 7 l-91 0 6 31 c3
17 6 35 6 40 0 5 44 10 97 11 96 3 97 3 104 31 l7 27 -129 0 c-71 0 -129 -3
-129 -6z"/>
<path d="M7522 513 c-110 -191 -162 -282 -162 -287 0 -4 15 -6 33 -6 28 0 37
6 56 40 l22 40 73 0 73 0 7 -40 c6 -36 9 -40 36 -40 36 0 36 -10 2 195 l-28
160 -36 3 c-35 3 -38 1 -76 -65z m81 -115 l6 -38 -50 0 c-27 0 -49 3 -49 7 0
3 17 36 37 72 l37 66 7 -35 c4 -19 9 -52 12 -72z"/>
<path d="M7820 576 c0 -5 -26 -123 -69 -318 -9 -38 -9 -38 24 -38 34 0 34 0
50 75 l17 75 40 0 c39 0 39 0 74 -75 33 -72 36 -75 69 -75 l35 0 -15 38 c-9
20 -27 56 -41 80 -24 41 -24 42 -5 42 12 0 35 13 53 28 27 25 31 36 31 76 0
77 -20 90 -153 94 -61 3 -110 1 -110 -2z m194 -72 c9 -25 7 -33 -14 -54 -16
-16 -33 -20 -81 -20 l-61 0 6 31 c3 17 6 38 6 45 0 22 136 20 144 -2z"/>
<path d="M8506 413 c-20 -93 -36 -174 -36 -180 0 -17 56 -17 62 -1 3 7 11 43
18 81 l14 67 73 0 73 0 -6 -27 c-3 -16 -10 -44 -15 -63 -15 -60 -12 -70 21
-70 34 0 32 -5 75 200 14 69 29 133 31 143 4 14 -1 17 -29 17 -34 0 -34 0 -48
-67 l-14 -68 -72 -3 c-40 -2 -73 1 -73 5 1 10 19 92 26 116 4 14 -1 17 -29 17
l-34 0 -37 -167z"/>
<path d="M8970 545 c0 -28 4 -35 20 -35 26 0 25 -14 -1 -39 -14 -13 -17 -21
-9 -26 22 -14 53 31 58 84 l5 51 -37 0 c-35 0 -36 -1 -36 -35z"/>
<path d="M9090 545 c0 -24 5 -35 15 -35 20 0 19 -19 -1 -41 -28 -31 -10 -46
19 -17 22 22 27 36 27 78 0 49 -1 50 -30 50 -28 0 -30 -3 -30 -35z"/>
<path d="M68 553 c-9 -10 -19 -42 -23 -70 l-7 -53 36 0 c34 0 36 2 36 34 0 27
-4 35 -21 38 l-21 3 21 27 c12 14 21 29 21 32 0 13 -28 5 -42 -11z"/>
<path d="M1894 542 c-12 -10 -25 -28 -28 -40 -4 -12 -14 -22 -22 -22 -17 0
-20 -46 -3 -52 8 -3 8 -20 0 -63 -17 -90 -14 -132 8 -145 34 -18 58 -12 63 15
4 19 1 25 -13 25 -22 0 -23 8 -8 101 10 54 16 69 29 69 11 0 20 10 22 25 4 19
1 25 -12 25 -15 0 -17 6 -13 40 6 45 6 46 -23 22z"/>
<path d="M5364 542 c-12 -10 -25 -28 -28 -40 -4 -12 -14 -22 -22 -22 -17 0
-20 -46 -3 -52 8 -3 8 -20 0 -63 -17 -90 -14 -132 8 -145 34 -18 58 -12 63 15
4 19 1 25 -13 25 -22 0 -23 8 -8 101 10 54 16 69 29 69 11 0 20 10 22 25 4 19
1 25 -12 25 -15 0 -17 6 -13 40 6 45 6 46 -23 22z"/>
<path d="M705 478 c-21 -11 -45 -37 -45 -49 0 -14 49 -16 54 -2 4 9 17 13 33
11 22 -2 28 -8 28 -28 0 -22 -5 -26 -48 -32 -27 -3 -57 -14 -68 -24 -28 -25
-35 -79 -15 -110 23 -34 40 -39 76 -21 17 9 32 11 36 6 3 -5 16 -9 29 -9 18 0
22 4 18 19 -3 10 3 55 11 98 19 92 12 128 -29 143 -33 13 -55 12 -80 -2z m55
-156 c0 -30 -30 -63 -53 -60 -31 4 -34 42 -5 62 30 21 58 20 58 -2z"/>
<path d="M1323 470 c-27 -16 -33 -17 -33 -5 0 9 -9 15 -24 15 -22 0 -24 -6
-40 -107 -10 -60 -20 -118 -23 -130 -4 -19 -1 -23 21 -23 28 0 28 0 46 105 11
66 36 108 67 113 30 5 34 -18 18 -110 -19 -107 -19 -108 9 -108 22 0 25 6 36
68 24 140 24 158 1 181 -26 26 -37 26 -78 1z"/>
<path d="M1519 475 c-35 -19 -59 -81 -59 -151 0 -45 4 -59 25 -79 28 -29 40
-30 78 -11 31 17 35 8 17 -38 -7 -20 -17 -26 -39 -26 -17 0 -34 6 -38 13 -4 8
-18 16 -30 19 -19 5 -23 2 -23 -17 0 -28 23 -53 57 -61 35 -9 100 13 114 37 8
16 59 280 59 312 0 4 -11 7 -25 7 -18 0 -25 -5 -25 -20 0 -26 -4 -25 -34 5
-29 28 -40 30 -77 10z m81 -54 c16 -31 12 -83 -10 -118 -38 -63 -87 -29 -77
54 8 70 62 110 87 64z"/>
<path d="M2280 477 c-43 -22 -70 -74 -70 -134 0 -66 19 -106 60 -123 24 -10
36 -10 60 0 28 12 60 44 60 61 0 17 -40 15 -56 -2 -31 -34 -74 -18 -74 28 0
22 4 23 70 23 l70 0 0 45 c0 55 -15 90 -47 104 -30 14 -42 14 -73 -2z m74 -69
c13 -36 7 -40 -47 -36 l-45 3 14 33 c11 28 18 33 41 30 20 -2 30 -11 37 -30z"/>
<path d="M4852 470 c-40 -24 -62 -73 -62 -134 0 -58 17 -94 51 -112 37 -19 58
-18 95 5 39 24 64 76 64 135 0 58 -17 94 -51 112 -38 19 -58 18 -97 -6z m88
-49 c29 -56 -6 -161 -55 -161 -15 0 -29 8 -36 21 -14 28 -6 101 15 134 20 30
61 33 76 6z"/>
<path d="M5602 470 c-40 -24 -62 -73 -62 -134 0 -58 17 -94 51 -112 37 -19 58
-18 95 5 39 24 64 76 64 135 0 58 -17 94 -51 112 -38 19 -58 18 -97 -6z m88
-49 c29 -56 -6 -161 -55 -161 -15 0 -29 8 -36 21 -14 28 -6 101 15 134 20 30
61 33 76 6z"/>
<path d="M1116 373 c-10 -60 -20 -118 -23 -130 -4 -19 -1 -23 21 -23 29 0 28
-3 51 135 20 120 20 125 -9 125 -22 0 -24 -6 -40 -107z"/>
<path d="M5056 377 c-18 -110 -13 -148 20 -161 21 -8 53 1 77 22 15 14 17 13
17 -1 0 -11 8 -17 23 -17 22 0 25 6 40 98 9 53 19 112 23 130 6 29 4 32 -19
32 -20 0 -27 -6 -31 -27 -3 -16 -10 -56 -17 -90 -12 -65 -37 -103 -68 -103
-28 0 -30 17 -15 100 19 110 18 120 -10 120 -22 0 -24 -6 -40 -103z"/>
</g>
</svg>
